<?xml version="1.0" standalone="no"?>
<!DOCTYPE svg PUBLIC "-//W3C//DTD SVG 1.1//EN" "http://www.w3.org/Graphics/SVG/1.1/DTD/svg11.dtd" >
<svg xmlns="http://www.w3.org/2000/svg">
<metadata>
Created by FontForge 20120731 at Fri Mar 24 09:51:21 2017
 By admin
</metadata>
<defs>
<font id="iconfont" horiz-adv-x="1024" >
  <font-face 
    font-family="iconfont"
    font-weight="500"
    font-stretch="normal"
    units-per-em="1024"
    panose-1="2 0 6 3 0 0 0 0 0 0"
    ascent="896"
    descent="-128"
    x-height="792"
    bbox="-1 -664 1451 896"
    underline-thickness="0"
    underline-position="0"
    unicode-range="U+0078-E867"
  />
<missing-glyph 
 />
    <glyph glyph-name=".notdef" 
 />
    <glyph glyph-name=".notdef" 
 />
    <glyph glyph-name=".null" horiz-adv-x="0" 
 />
    <glyph glyph-name="nonmarkingreturn" horiz-adv-x="341" 
 />
    <glyph glyph-name="x" unicode="x" horiz-adv-x="1001" 
d="M281 543q-27 -1 -53 -1h-83q-18 0 -36.5 -6t-32.5 -18.5t-23 -32t-9 -45.5v-76h912v41q0 16 -0.5 30t-0.5 18q0 13 -5 29t-17 29.5t-31.5 22.5t-49.5 9h-133v-97h-438v97zM955 310v-52q0 -23 0.5 -52t0.5 -58t-10.5 -47.5t-26 -30t-33 -16t-31.5 -4.5q-14 -1 -29.5 -0.5
t-29.5 0.5h-32l-45 128h-439l-44 -128h-29h-34q-20 0 -45 1q-25 0 -41 9.5t-25.5 23t-13.5 29.5t-4 30v167h911zM163 247q-12 0 -21 -8.5t-9 -21.5t9 -21.5t21 -8.5q13 0 22 8.5t9 21.5t-9 21.5t-22 8.5zM316 123q-8 -26 -14 -48q-5 -19 -10.5 -37t-7.5 -25t-3 -15t1 -14.5
t9.5 -10.5t21.5 -4h37h67h81h80h64h36q23 0 34 12t2 38q-5 13 -9.5 30.5t-9.5 34.5q-5 19 -11 39h-368zM336 498v228q0 11 2.5 23t10 21.5t20.5 15.5t34 6h188q31 0 51.5 -14.5t20.5 -52.5v-227h-327z" />
    <glyph glyph-name="guanbi" unicode="&#xe689;" horiz-adv-x="1000" 
d="M514 693q-98 0 -181 -48t-131 -131t-48 -180.5t48 -180.5t131 -131.5t181 -48.5t181 48.5t131 131.5t48 180.5t-48 180.5t-131 131t-181 48zM706 179l-32 -32q-13 -13 -32 -13t-32 13l-97 97l-97 -97q-13 -13 -31 -13t-31 13l-31 31q-13 12 -13 30.5t13 30.5l97 98
l-96 96q-13 13 -13 32t13 32l32 32q13 13 31.5 13t31.5 -13l97 -97l85 85q13 13 31 13t31 -13l31 -30q13 -13 13 -31t-13 -31l-86 -86l98 -97q13 -13 13 -31.5t-13 -31.5z" />
    <glyph glyph-name="gongsi" unicode="&#xe69f;" horiz-adv-x="1000" 
d="M91 -109h409v818h-409v-818zM347 607h102v-103h-102v103zM347 402h102v-102h-102v102zM347 198h102v-102h-102v102zM142 607h103v-103h-103v103zM142 402h103v-102h-103v102zM142 198h103v-102h-103v102zM551 453h358v-51h-358v51zM551 -109h102v205h154v-205h102v460
h-358v-460z" />
    <glyph glyph-name="sousuo" unicode="&#xe70d;" 
d="M1016 -126l-292 294q58 78 74.5 173t-12.5 188t-99 164q-77 76 -180 103.5t-206 0t-180 -104t-104.5 -180t0 -206.5t104.5 -180q70 -70 163 -99t188 -12.5t173 75.5l292 -295q8 -7 18 -7t17 7l44 44q7 7 7 17.5t-7 17.5zM195 198q-86 86 -86 208t86 208t208 86t208 -86
t86 -208t-86 -208t-208 -86t-208 86z" />
    <glyph glyph-name="zuihouye" unicode="&#xe710;" 
d="M191 762l55 55l435 -435l-435 -435l-55 54l381 381zM191 762zM824 819h79v-872h-79v872z" />
    <glyph glyph-name="celiang" unicode="&#xe6c0;" 
d="M940 214l-598 598q-7 7 -17 7t-17 -7l-224 -224q-7 -7 -7 -17.5t7 -17.5l598 -597q7 -8 17 -8t17 8l224 223q7 7 7 17.5t-7 17.5zM222 556q7 -7 17 -7t17 7l136 137l35 -36l-82 -82q-7 -7 -7 -17t7 -17.5t17 -7.5t17 7l83 83l35 -35l-136 -136q-7 -7 -7 -17.5t7 -17.5
t17 -7t17 7l136 136l36 -35l-83 -82q-7 -8 -7 -18t7 -17t17 -7t18 7l82 83l35 -35l-136 -137q-7 -7 -7 -17t7 -17t17 -7t18 7l136 136l35 -35l-83 -83q-7 -7 -7 -17t7 -17t17.5 -7t17.5 7l82 82l148 -147l-189 -190l-563 563l189 190l33 -33l-136 -136q-8 -7 -8 -17t8 -18v0
z" />
    <glyph glyph-name="nv" unicode="&#xe680;" 
d="M627 463q-4 1 -9.5 0t-14.5 -9t-10 -24q0 -3 1 -8.5t9.5 -14.5t23.5 -10q3 0 8 1t14.5 9.5t10.5 22.5q-1 4 -2 9t-9.5 14.5t-21.5 9.5zM426 463q-3 0 -8.5 -1t-15 -9.5t-9.5 -22.5q1 0 0 -3t1 -8t4.5 -9.5t10 -8.5t17.5 -4q4 0 8.5 0.5t13.5 8.5t12 24q0 3 -1 8
t-9.5 14.5t-23.5 10.5zM387 122q-8 -4 -21.5 -12t-48.5 -36.5t-63 -63t-54 -93.5t-32 -125h323zM546 -208h339q-1 5 -2 14t-7.5 36t-16 52.5t-27 60t-39 63.5t-55 57.5t-72.5 46.5zM843 26q-4 7 -12.5 18.5t-38.5 41t-65 52t-94 40.5t-123 17h-12.5t-31 -3.5t-46.5 -9
t-54.5 -19.5t-59 -32.5t-56 -49t-49.5 -69.5l-1 443q0 6 -0.5 17.5t3 45t12 65t30.5 70.5t54 69t86.5 54t124.5 32q7 0 18.5 -0.5t45.5 -7t65 -17.5t69 -35.5t66 -58t47.5 -88t21.5 -122.5v-453zM770 485q-9 -1 -25 -1.5t-63 2t-90.5 10.5t-98 29.5t-95.5 52.5v0v0
q-10 -9 -24.5 -23t-48 -40t-51.5 -31v0q2 -1 0.5 -8t1 -20t4.5 -29.5t10.5 -36t19 -39t29.5 -38.5t42 -34.5t57.5 -27.5t74.5 -17v0h8.5t21.5 1.5t31.5 4.5t37 10.5t41 19t39.5 31t35.5 43.5t27 60t15.5 78v0v3zM627 463q-4 0 -9.5 -1t-14.5 -9t-10 -23v0q1 -3 2 -8.5
t9.5 -14.5t22.5 -10q12 -1 14 -1l-12 1q4 1 9 2.5t13.5 10t8.5 20.5v0q0 4 -1.5 9.5t-10 14.5t-21.5 9q-10 1 -13 0l13 -2v2zM426 463q-3 0 -8 -0.5t-14 -9t-11 -23.5v0q0 -4 1.5 -9.5t9.5 -15t22 -8.5v0v0q4 0 9 0.5t14 9t11 23.5v0q-1 4 -2 9.5t-9.5 14.5t-22.5 9v0v0z
" />
    <glyph glyph-name="lianxi" unicode="&#xe6a9;" 
d="M172.5 769q3.5 0 5.5 -2l193 -193q3 -3 3 -6t-3 -5l-74 -72q-20 -20 -20 -48.5t20 -48.5l309 -309q20 -20 48 -20q29 0 49 21l71 74q3 2 6 2t6 -2l193 -193q2 -3 2 -6.5t-2 -6.5l-86 -85q-38 -38 -102 -38q-32 0 -56 11l-1 1l-2 1q-7 2 -21.5 8.5t-56.5 30t-86.5 53
t-109 82.5t-125.5 115q-124 125 -212 269q-44 72 -64 120l-1 2l-1 2q-18 34 -10 80.5t36 75.5l85 85q3 2 6.5 2zM172 812q-21 0 -36 -15l-85 -85q-38 -38 -48 -98.5t14 -107.5q4 -8 10.5 -22.5t31.5 -59.5t54.5 -90t80.5 -109t108 -122q64 -65 130.5 -119.5t115 -86.5
t88.5 -54t60 -31t21 -8q33 -16 74 -16q37 0 72.5 13.5t59.5 37.5l86 85q15 15 15 36.5t-15 36.5l-193 193q-15 15 -36 15t-36 -16l-72 -74q-7 -7 -18 -7t-18 7l-309 309q-8 8 -8 18.5t8 17.5l74 72q15 15 15.5 36t-14.5 36l-193 193q-15 15 -37 15v0z" />
    <glyph glyph-name="down1" unicode="&#xe600;" 
d="M887.5 582q-7.5 8 -19 8t-19.5 -8l-337 -338l-338 338q-8 8 -19 8t-19 -8t-8 -19.5t8 -19.5l353 -353q1 -2 3 -4q8 -8 20 -8q11 0 19 8q2 2 3 4l354 353q7 8 7 19.5t-7.5 19.5z" />
    <glyph glyph-name="set2" unicode="&#xe656;" 
d="M424 831q-100 0 -178 -44q1 -4 1 -6t-1 -6.5t-1 -6.5q-1 -6 1 -12t7.5 -13.5t8.5 -11t13.5 -13.5t13.5 -13q110 -110 133 -136q-9 -8 -43.5 -43t-52.5 -52q-24 23 -71 71.5t-62 63.5q-4 4 -14 15t-17 17t-14 10q-5 3 -19.5 1t-19.5 -1q-55 -104 -42 -216q12 -109 89 -195
q78 -87 194 -109q99 -19 196 15q21 -20 58 -56t54 -53q5 -6 24.5 -26.5t28.5 -29t25.5 -20t30.5 -16.5q48 -18 102.5 2t78.5 76q15 34 11 73q-4 41 -25 67v0q-4 5 -18 19.5t-26 26.5l-12 12v0q-8 8 -27 26t-29 28l-25 25l-26 26q-5 5 -16.5 17.5t-19.5 20t-16 11.5
q-22 10 -40.5 -9.5t-8.5 -40.5q3 -8 10.5 -16.5t20 -19.5t17.5 -16q17 -17 52.5 -51.5t51.5 -51.5q3 -2 5 -5v0h1q1 -2 7 -8.5t10 -9.5q34 -36 38 -46v0v0v0q0 -1 1 -1q6 -21 -1.5 -41.5t-24 -32.5t-37.5 -15.5t-40 8.5q-5 3 -9.5 8t-10.5 11.5t-9 10.5q-19 18 -88.5 86.5
t-102.5 101.5q-50 -27 -100.5 -36.5t-104 2t-101.5 45.5q-76 54 -105 149q-25 78 -3 152q40 -41 123 -124q5 -4 13.5 -13.5t14.5 -15.5t13 -10q5 -2 10.5 -3t11.5 1t10 4t11 8t10 9l11.5 11.5l11.5 11.5l43 43q4 4 27 25t37 36.5t17 26.5q2 3 2 6.5v6.5t-1.5 7t-3 6.5
t-4.5 6.5l-4.5 6t-5.5 6.5t-6 6t-6.5 6.5t-6.5 7q-73 73 -125 126q142 33 249 -56q53 -45 77.5 -103.5t22.5 -113.5q0 -3 -0.5 -9.5t-0.5 -11.5t1 -9q10 -22 32.5 -25t36.5 17q5 8 5 44q0 122 -83 223q-56 66 -125.5 95.5t-140.5 29.5z" />
    <glyph glyph-name="mulu" unicode="&#xe6f1;" 
d="M61 626h76t75 -1v-75t-1 -74h-150v150zM959 626v-150h-698v75.5t1 74.5h697zM61 379h151v-150h-151v150zM959 379v-150h-698v76t1 74h697zM61 103q14 0 76 0.5t75 -1.5v-149h-151v150zM959 103v-150q-63 1 -349 0.5t-349 0.5v149h698z" />
    <glyph glyph-name="daoru" unicode="&#xe691;" 
d="M747 416q-24 89 -93 154.5t-158 65.5q-111 0 -182.5 -71.5t-78.5 -192.5q-71 0 -121 -46.5t-50 -121.5q0 -51 23.5 -106.5t63.5 -94.5t81 -39h560q50 1 90 44.5t59 103.5t19 120q0 46 -11.5 83.5t-36.5 67t-66 37.5t-99 -4v0zM679 234l-159 -155q-4 -3 -8 -3t-8 3
l-159 155q-1 2 -0.5 4.5t3.5 2.5h103v159q0 5 3 8.5t8 3.5h100q5 0 8 -3.5t3 -8.5v-159h103q3 0 3.5 -2.5t-0.5 -4.5v0zM679 234z" />
    <glyph glyph-name="yewubaobiao" unicode="&#xe6c3;" 
d="M94 -34v697h-27v-697h-1v-29h892v29h-864zM837 227v-203h83v203h-83zM958 601l6 -7l-209 -280v-290h-83v277l-82 35v-312h-83v274l-83 -78v-196h-83v214l-82 60v-274h-83v99l-43 -122l-15 6l-4 3l62 179v154h83v-7l82 -61v359h83v-374l83 78v92h83v-59l82 -35v182h83
v-167l195 261z" />
    <glyph glyph-name="bumen" unicode="&#xe71e;" 
d="M375 -148v40q2 181 3 198q2 47 29 62.5t75 12.5q6 -1 15 -17q11 -23 113 -230q6 -12 14 -18q-38 192 -46 226q-4 20 11 33q5 4 55 52q-92 10 -123 79q-19 42 -7 90q11 45 49.5 71.5t87.5 24.5q46 -3 80 -35.5t40 -79.5q8 -55 -23.5 -91.5t-110.5 -61.5q50 -44 55 -48
q16 -13 11 -35q-27 -127 -41 -226q11 22 12 23q90 183 111 226q9 18 29 18q48 -1 68.5 -20.5t21.5 -67.5v-226h-529zM905 246q-41 18 -46 21q-8 5 -8 22q-1 81 -1 369q0 26 -4 30.5t-30 4.5h-608q-25 0 -29.5 -4.5t-4.5 -29.5v-722q0 -24 4.5 -28.5t28.5 -4.5h107v-52
q-130 0 -144 1q-19 1 -33 18.5t-16 38.5q-1 9 -1 20v233v272.5v232.5q0 41 22 62q20 18 65 19h398q193 0 214 -1q46 0 66 -19.5t20 -65.5v-392v-25zM757 600v-47h-491v47h491zM452 324v-48h-185v48h185zM432 415h-166v51h166v-51z" />
    <glyph glyph-name="daoru1" unicode="&#xe692;" 
d="M764 492q3 3 1.5 6.5t-5.5 3.5h-156v231q0 7 -5 12t-12 5h-153q-7 0 -12 -5t-5 -12l1 -231h-157q-3 0 -4.5 -3.5t1.5 -6.5l241 -224q5 -4 11.5 -4t11.5 4zM1005 254l-152 118q-15 12 -35 12h-60l171 -146h-198l-75 -106h-291l-71 106h-198l177 146h-69q-20 0 -36 -12
l-151 -118q-7 -5 -9.5 -14t-0.5 -17l61 -185q2 -8 10 -13.5t16 -5.5h835q8 0 15.5 5.5t10.5 13.5l59 185q3 7 0 16.5t-9 14.5z" />
    <glyph glyph-name="list" unicode="&#xe69e;" 
d="M40 591h944q16 0 28 12t12 28.5t-12 28.5t-28 12h-944q-16 0 -28 -12t-12 -28.5t12 -28.5t28 -12zM984 322h-944q-16 0 -28 -12t-12 -28.5t12 -28.5t28 -12h944q16 0 28 12t12 28.5t-12 28.5t-28 12zM984 -29h-944q-16 0 -28 -11.5t-12 -28.5t12 -28.5t28 -11.5h944
q16 0 28 11.5t12 28.5t-12 28.5t-28 11.5z" />
    <glyph glyph-name="jungongcelianghuizong" unicode="&#xe6ba;" 
d="M954 643v171l-873 -859h873v104h-106v33h106v35h-71v35h71v35h-71v32h71v35h-106v35h106v35h-71v35h71v32h-71v35h71v35h-106v35h106v33h-71v34h71v35h-71v35h71zM812 92h-396l396 391v-391zM593 714l-51 50l-17 -17l51 -51zM127 249q9 -10 22 -10t22 10l283 324l-51 52
l-320 -288q-9 -9 -9 -22t9 -22zM129.5 329q7.5 7 17.5 7t17 -7t7 -17.5t-7 -17.5t-17 -7t-17.5 7t-7.5 17.5t7.5 17.5zM541 522l85 86l-183 185l-99 17l15 -103z" />
    <glyph glyph-name="jianyingyoujiantou" unicode="&#xe693;" 
d="M217 815q3 0 5 -2l535 -421q4 -3 4 -8t-4 -7l-535 -422q-4 -4 -9.5 -1.5t-5.5 8.5v844q0 6 5 8q2 1 5 1v0zM736 384l-510 402v-804z" />
    <glyph glyph-name="push-down-full" unicode="&#xe661;" 
d="M640 145q0 -7 -3.5 -12.5t-7.5 -5.5h-234q-4 0 -7.5 5.5t-3.5 12.5v669q0 8 3.5 13t7.5 5h234q4 0 7.5 -5t3.5 -13v-669zM814 322q8 0 9.5 -4t-2.5 -10l-298 -357q-5 -6 -11.5 -6t-10.5 6l-298 357q-5 6 -3 10t9 4h605z" />
    <glyph glyph-name="xitongshezhi" unicode="&#xe601;" 
d="M966 -4q58 -21 58 -22l-13 -51q-26 4 -66 12q-17 -33 -48 -55l32 -67l-43 -25q-18 26 -44 65q-33 -9 -64 -6l-24 -59l-52 12q5 27 14 67q-22 12 -40 30l-64 -32l-24 44q21 16 54 39q-17 37 -16 76l-57 22l13 51q23 -3 57 -10q12 30 36 55l-31 66l43 24q16 -21 38 -54
q44 20 90 15l24 59l52 -13q-5 -27 -13 -67q33 -18 55 -49l66 32l25 -44q-26 -19 -64 -45q10 -36 6 -70zM825.5 131.5q-45.5 12.5 -86 -11.5t-53 -70.5t11 -88t69.5 -54t86.5 11.5t53 70.5t-11.5 88t-69.5 54zM585 261l60 -72l-53 -54q-30 25 -74 64q-52 -33 -111 -41
l-9 -100h-76q-4 41 -8 103q-55 12 -103 46l-82 -72l-53 54q27 35 70 85q-34 48 -45 104l-101 9v77q38 4 98 9q8 60 40 113l-62 76l53 54q28 -24 70 -61q52 41 115 54l8 103h76q4 -39 8 -99q68 -10 124 -50l62 53l53 -54q-20 -25 -52 -63q40 -57 49 -127l98 -8v-77
q-40 -4 -101 -8q-13 -65 -54 -118zM369.5 638q-82.5 0 -140.5 -59.5t-58 -143.5t58 -143.5t140.5 -59.5t141 59.5t58.5 143.5t-58.5 143.5t-141 59.5z" />
    <glyph glyph-name="bangzhu" unicode="&#xe721;" 
d="M512 748q-91 0 -174 -35.5t-143 -95.5t-95.5 -143t-35.5 -174q0 -115 55 -215q3 -10 10 -17q12 -12 29 -12t29 11.5t12 28.5l-1 4q0 6 -1 11q-3 10 -10 17q-43 80 -43 173q0 99 49 184t134 134t184.5 49t184 -49t133.5 -134t49 -184.5t-49 -184t-133.5 -133.5t-184.5 -49
q-118 0 -214 68q-6 8 -15 12q-8 3 -16 3q-17 0 -29 -12t-12 -28v-4q0 -13 7 -23q8 -12 22 -16q115 -82 258 -82q91 0 174 35.5t143 95.5t95.5 143t35.5 174t-35.5 174t-95.5 143t-143 95.5t-174 35.5zM511 125q-19 0 -32.5 -13.5t-13.5 -32.5l1 -1q0 -19 13 -32.5t32 -13.5
t32.5 13.5t13.5 32.5v1q0 19 -13.5 32.5t-32.5 13.5zM335 391q1 -16 12 -27t27 -11t27.5 11t12.5 27v0q0 41 28.5 69.5t69 28.5t69.5 -28.5t29 -69t-29 -69.5t-69 -29v0h-0.5h-0.5q-16 0 -27.5 -11.5t-11.5 -27.5v-54v0q0 -16 11.5 -27.5t28 -11.5t28 11.5t11.5 27.5v0v19
q59 13 98.5 61.5t39.5 110.5q0 73 -52 125t-125 52t-124.5 -51t-52.5 -124v-0.5v-0.5v0v-1v0z" />
    <glyph glyph-name="xingxing" unicode="&#xe6a8;" 
d="M949 425.5q-8 24.5 -33 28.5l-257 37l-115 233q-12 23 -37.5 23t-37.5 -23l-115 -233l-257 -37q-25 -4 -33 -28.5t11 -42.5l186 -181l-44 -256q-5 -26 16 -41t44 -3l230 121l229 -121q10 -5 20 -5q13 0 24 8q21 15 17 41l-44 256l186 181q18 18 10 42.5z" />
    <glyph glyph-name="yousanjiao" unicode="&#xe6a3;" 
d="M61 732v-696l347 348z" />
    <glyph glyph-name="jinru" unicode="&#xe6f2;" 
d="M362 300h-315v126h315v126l188 -189l-188 -189v126zM990 803v-817l-377 -189v189h-377v251h63v-188h314v565l252 126h-566v-251h-63v314h754zM990 803z" />
    <glyph glyph-name="guanbi1" unicode="&#xe697;" 
d="M512 -155q-88 0 -169 34q-78 33 -138.5 93t-93.5 138q-34 81 -34 170q0 130 72 239q69 105 185 157l4 2q10 4 19.5 0.5t14 -13.5t0.5 -19.5t-13 -14.5q-2 -1 -4 -1q-102 -46 -164 -140q-63 -95 -63 -210q0 -77 29 -147t83.5 -124.5t124.5 -83.5t147 -29t147 29
t124.5 83.5t83.5 124.5t29 147q0 117 -66 214q-64 95 -168 139q-10 4 -14 14t0 19.5t14 13.5t20 0q118 -50 191 -157q74 -110 74 -243q0 -89 -34 -170q-33 -78 -93.5 -138t-138.5 -93q-81 -34 -169 -34zM512 418q-11 0 -18.5 7.5t-7.5 17.5v287q0 10 7.5 17.5t18.5 7.5
t18.5 -7.5t7.5 -17.5v-287q0 -10 -7.5 -17.5t-18.5 -7.5z" />
    <glyph glyph-name="ceyan" unicode="&#xe602;" 
d="M343 217zM560 -115q-57 71 -120 123t-112 70l151 91l72 -142q6 10 17.5 27.5t47.5 65t73 89.5t92 88.5t107 73.5v-109v-93q-62 -14 -174.5 -111.5t-153.5 -172.5zM764 342v249q0 17 -12.5 29t-29.5 12h-124v83h166q34 0 58.5 -24.5t24.5 -58.5v-219zM515 591h127
q12 0 20.5 -9.5t8.5 -21.5v-52h-364v52q0 12 8.5 21.5t20.5 9.5h137q-17 0 -29 12t-12 29v42q0 17 12 29t29 12h42q17 0 29 -12t12 -29v-42q0 -17 -12 -29t-29 -12zM492 686q-13 0 -21.5 -8.5t-8.5 -21t8.5 -21t21.5 -8.5t21.5 8.5t8.5 21t-8.5 21t-21.5 8.5zM224 591v-582
q0 -17 12 -29t30 -12h124v-83h-166q-34 0 -58.5 24.5t-24.5 58.5v664q0 34 24.5 58.5t58.5 24.5h166v-83h-124q-18 0 -30 -12t-12 -29zM722 -32q17 0 29.5 12t12.5 30v10l83 83v-135q0 -34 -24.5 -58.5t-58.5 -24.5h-134l82 83h10z" />
    <glyph glyph-name="icon-lock" unicode="&#xe603;" 
d="M749 513h-452v86q0 81 60 137t148 57q86 -1 143.5 -56t57.5 -138v-43q0 -9 6 -15t15 -6t15.5 6t6.5 15v43q0 101 -69.5 168.5t-172.5 68.5h-3q-106 -1 -178 -69.5t-72 -167.5v-88q-55 -8 -92 -50t-37 -99v-279q0 -63 44 -107t106 -44h474q62 0 106 44t44 107v279
q0 63 -44 107t-106 44zM856 83q0 -45 -31.5 -76.5t-75.5 -31.5h-474q-44 0 -75.5 31.5t-31.5 76.5v279q0 45 31.5 76.5t75.5 31.5h474q44 0 75.5 -31.5t31.5 -76.5v-279zM512 384q-53 0 -91 -38t-38 -91q0 -48 31 -83.5t77 -43.5l-0.5 -1l-0.5 -1v-65q0 -9 6.5 -15t15.5 -6
t15.5 6t6.5 15v65l-0.5 1l-0.5 1q46 8 77 43.5t31 83.5q0 53 -38 91t-91 38zM512 169q-36 0 -61 25t-25 60.5t25 61t61 25.5t61 -25.5t25 -61t-25 -60.5t-61 -25z" />
    <glyph glyph-name="check-project" unicode="&#xe604;" 
d="M941 75l-161 162q-15 15 -36 18t-39 -7l-30 30q73 93 73 213q0 93 -45.5 172t-124.5 124.5t-172.5 45.5t-172 -45.5t-124.5 -124.5t-46 -172.5t46 -172t124.5 -124.5t172.5 -46q119 0 212 74l30 -31q-9 -18 -6.5 -39t18.5 -36l161 -161q18 -19 44.5 -19t45.5 19l30 30
q19 19 19 45.5t-19 44.5zM126 490.5q0 115.5 82 197.5t197.5 82t197.5 -82t82 -197.5t-82 -197.5t-197.5 -82t-197.5 82t-82 197.5zM627 423q13 4 19.5 17t1.5 27q-8 24 -26 50t-46.5 52.5t-73 43.5t-96.5 17t-97 -17t-73.5 -43.5t-46.5 -52.5t-26 -50q-5 -14 1.5 -27
t20 -17.5t26.5 2t18 19.5q2 6 7 15q11 -61 58.5 -101.5t111 -40.5t111 41t58.5 102q5 -9 7 -16q8 -23 33 -23q6 0 12 2zM405 346q-62 0 -100.5 36.5t-42.5 114.5q31 36 75 52q-22 -25 -22 -58q0 -38 26.5 -64.5t64 -26.5t64 26.5t26.5 64.5q0 33 -22 58q43 -15 74 -50
q-4 -75 -42.5 -114t-100.5 -39z" />
    <glyph glyph-name="set3" unicode="&#xe65c;" 
d="M528 790q-106 0 -195.5 -52t-141.5 -142t-52 -195.5t52 -195.5t141.5 -142t195.5 -52t195.5 52t142 142t52.5 195.5t-52.5 195.5t-142 142t-195.5 52zM528 50q-95 0 -176 47t-127.5 127.5t-46.5 176t46.5 176t127.5 127.5t176 47t176 -47t128 -127.5t47 -176t-47 -176
t-128 -127.5t-176 -47zM956 381h-273q-8 -58 -52 -97t-103 -39q-34 0 -65 14l-107 -185l2 -1t3 -2l-30 -51q-5 -8 -15 -9q-10 -7 -20 -1q-7 4 -9 12t2 15l141 243q-58 47 -58 121q0 37 16.5 69.5t45.5 54.5l-137 237q-2 3 -2.5 7t0.5 8q3 8 10 12q3 2 7 2q8 1 14 -4
q3 -2 5 -5l30 -52v0l107 -186q29 12 60 12q59 0 103 -39t52 -97h273q9 0 14.5 -5.5t5.5 -13.5t-5.5 -14t-14.5 -6zM528 518q-48 0 -82.5 -34.5t-34.5 -83t34.5 -82.5t82.5 -34t82.5 34t34.5 82.5t-34.5 83t-82.5 34.5zM528 342q-24 0 -41 17t-17 41.5t17 41.5t41 17t41 -17
t17 -41.5t-17 -41.5t-41 -17zM528 420q-8 0 -13.5 -5.5t-5.5 -13.5t5.5 -14t13.5 -6t14 6t6 14t-6 13.5t-14 5.5zM947 493l-57 -15q-4 18 -10 37l57 15q8 3 15 -1.5t9 -12t-2 -14.5t-12 -9zM909 598l-51 -30q-10 19 -20 34l52 30q7 4 14.5 2t11.5 -9t2 -15t-9 -12zM803 648
q-13 14 -28 27l42 42q6 6 14 6t13.5 -5.5t5.5 -13.5t-5 -14zM730 711q-16 10 -34 19l30 52q4 7 11.5 9t14.5 -2t9.5 -12t-1.5 -15zM643 752q-20 7 -38 10l16 58q2 7 9 11t14.5 2t11.5 -9t2 -14zM509 770v59q0 8 5.5 14t13.5 6t14 -6t6 -14v-59q-19 1 -19.5 1t-19.5 -1z
M399 810q-2 7 2 14t11.5 9t14.5 -2t9 -11l16 -57q-19 -4 -38 -10zM211.5 84q-5.5 6 -5.5 14t5 14l42 42q13 -15 28 -28l-42 -42q-6 -6 -14 -6t-13.5 6zM211 690q-5 6 -5 14t5.5 13.5t13.5 5.5t14 -6l42 -42q-15 -13 -28 -27zM199 569l-51 29q-7 4 -9 12t2 15t11.5 9t14.5 -2
l51 -30q-10 -15 -19 -33zM166 478l-56 15q-8 2 -12 9t-2 15t9 12t15 1l56 -15q-6 -19 -10 -37zM159 420q-1 -19 -1 -19.5t1 -19.5h-59q-8 0 -14 6t-6 14t6 13.5t14 5.5h59zM110 309l56 15q4 -18 10 -38l-56 -15q-8 -2 -15 2t-9 12t2 15t12 9zM148 203l51 30q9 -18 19 -34
l-51 -29q-7 -4 -14.5 -2t-11.5 9t-2 14.5t9 11.5zM414 49q19 -6 38 -10l-16 -57q-2 -8 -9 -12t-14.5 -2t-11.5 9t-2 15zM548 32v-60q0 -8 -6 -13.5t-14 -5.5t-13.5 5.5t-5.5 13.5v60q18 -1 19 -1t20 1zM658 -8q2 -8 -2 -15t-11.5 -9t-14.5 2t-10 12l-15 57q18 4 38 10
l15 -57v0zM759 40q5 -7 2.5 -15t-9.5 -12t-14.5 -2t-11.5 9l-30 51q18 10 34 20zM845 112q5 -6 5 -14t-5.5 -14t-13.5 -6t-14 6l-42 42q15 13 28 28zM858 233l51 -29q7 -5 9 -12.5t-2 -14.5t-11.5 -9t-14.5 2l-52 30q11 15 20 33zM890 324l57 -15q8 -2 12 -9t2 -15t-9 -12
t-15 -2l-57 15q6 20 10 38z" />
    <glyph glyph-name="push-down" unicode="&#xe662;" 
d="M892 306h-218v525h-326v-525h-218l379 -380zM804 271l-295 -292l-293 293h174v516h245v-517h169z" />
    <glyph glyph-name="iconbaobiao" unicode="&#xe6c4;" 
d="M864 -147h-704q-13 0 -22.5 9t-9.5 23v830q0 14 9.5 23t22.5 9h704q13 0 22.5 -9t9.5 -23v-830q0 -14 -9.5 -23t-22.5 -9zM192 -84h640v768h-640v-768zM737 525h-450q-13 0 -22.5 9.5t-9.5 22.5t9.5 22.5t22.5 9.5h450q13 0 22.5 -9.5t9.5 -22.5t-9.5 -22.5t-22.5 -9.5z
M608 333h-321q-13 0 -22 9.5t-9 22.5t9 22.5t22 9.5h321q13 0 22.5 -9.5t9.5 -22.5t-9.5 -22.5t-22.5 -9.5zM544 175h-257q-13 0 -22 9t-9 22t9 22.5t22 9.5h257q13 0 22.5 -9.5t9.5 -22.5t-9.5 -22t-22.5 -9zM544 13h-257q-13 0 -22.5 9.5t-9.5 22.5t9.5 22.5t22.5 9.5h257
q13 0 22 -9.5t9 -22.5t-9 -22.5t-22 -9.5zM704 398h64v-64h-64v64zM704 237h64v-63h-64v63zM704 78h64v-64h-64v64z" />
    <glyph glyph-name="shezhi3" unicode="&#xe65d;" 
d="M847.5 -128q-68.5 0 -117.5 49l-216 216q-60 -21 -124 -21q-106 0 -196 52.5t-142 142t-52 195.5q0 72 26 140l13 35l220 -220q13 -13 33.5 -13t34.5 13l108 108q14 14 14 34t-14 34l-220 220l36 13q66 26 139 26q106 0 195.5 -52t142 -142t52.5 -196h-49
q0 93 -45.5 171.5t-124.5 124t-171 45.5q-44 0 -85 -10l164 -165q29 -28 29 -68.5t-29 -68.5l-108 -108q-27 -28 -68 -28t-69 28l-165 164q-10 -42 -10 -85q0 -92 45.5 -170.5t124 -124.5t171.5 -46q63 0 122 23l14 5l239 -238q33 -33 82.5 -33t82.5 33l11 11q34 34 34 82.5
t-34 82.5l-182 182l35 35l181 -182q49 -49 49 -117.5t-49 -117.5l-10 -10q-49 -49 -117.5 -49z" />
    <glyph glyph-name="fangkuai" unicode="&#xe6a6;" 
d="M144 752h736v-736h-736v736z" />
    <glyph glyph-name="nan" unicode="&#xe681;" 
d="M458 -75q-113 0 -193.5 80.5t-80.5 193.5t80.5 193.5t193.5 80.5t193.5 -80.5t80.5 -193.5t-80.5 -193.5t-193.5 -80.5zM458.5 432q-96.5 0 -165 -68.5t-68.5 -164.5t68.5 -164.5t165 -68.5t164.5 68.5t68 164.5t-68 164.5t-164.5 68.5zM458 -58q-106 0 -181.5 75.5
t-75.5 181.5t75.5 181.5t181.5 75.5t181.5 -75.5t75.5 -181.5t-75.5 -181.5t-181.5 -75.5zM458 449q-104 0 -177 -73t-73 -177t73 -177.5t177 -73.5t177.5 73.5t73.5 177.5t-73.5 177t-177.5 73zM648.5 369q-8.5 0 -14.5 6t-6 14.5t6 14.5l111 111q6 6 14.5 6t14.5 -6
t6 -14.5t-6 -14.5l-111 -111q-6 -6 -14.5 -6zM648.5 386q-1.5 0 -2.5 1q-2 2 0 4l111 111q2 2 4.5 0t-0.5 -4l-111 -111q0 -1 -1.5 -1zM775 353q-8 0 -14 6t-6 14v119q0 3 -4 3h-119q-8 0 -14 6t-6 14.5t6 14.5t14 6h119q19 0 32 -13t13 -31v-119q0 -8 -6 -14t-15 -6v0z
M775 370q-3 0 -3 3v119q0 9 -6 15t-15 6h-119q-3 0 -3 3q0 1 1 2t2 1h119q11 0 19 -8t8 -19v-119q0 -3 -3 -3z" />
    <glyph glyph-name="fangdajingfangzi" unicode="&#xe6fb;" 
d="M397 439l-184 -121v-423h188v239q-52 67 -53 152t49 153zM708 38v-33h-133v-110h226l-1 90l-68 68q-11 -8 -24 -15zM542 601l61 -60q102 -2 174 -74q67 -67 73 -161h99l-170 165v96h-56v-43l-182 176q-6 6 -14.5 5.5t-13.5 -5.5l-450 -394h115l336 294q5 6 13.5 6.5
t14.5 -5.5zM777 170q42 62 35 138.5t-61 130.5q-62 63 -150.5 63t-151 -62.5t-62.5 -151t63 -150.5q54 -55 130.5 -62t138.5 36l140 -140l58 58zM705 184q-43 -43 -104.5 -43t-105 43t-43.5 104.5t43.5 105t105 43.5t104.5 -43.5t43 -105t-43 -104.5z" />
    <glyph glyph-name="tianbaoshezhi" unicode="&#xe6c5;" horiz-adv-x="1363" 
d="M178 818v-846h980v846h-980zM486 2h-269v177h269v-177zM486 209h-269v203h269v-203zM486 442h-269v207h269v-207zM813 2h-296v177h296v-177zM813 209h-296v203h296v-203zM813 442h-296v207h296v-207zM1121 2h-278v177h278v-177zM1121 209h-278v203h278v-203zM1121 442
h-278v207h278v-207zM1187 739q2 5 3 14.5t-6.5 34t-28.5 44.5q-15 14 -31 22.5t-28 10t-22 1t-15 -1.5l-5 -2l-542 -571l-10 -21l91 -84l17 6zM439 128l154 58l-91 84zM276 295zM1207 88q-1 10 -3 12l-12 3h-27q-1 13 -4 26l29 11q9 4 10 8l-1 12l-12 28q-4 9 -7 10l-13 -1
l-30 -12q-5 8 -12 15l20 23q1 1 2 2.5t2.5 4.5t1.5 4l-7 11l-23 20l-11 5l-11 -7l-22 -25q-9 4 -18 7l3 34q0 9 -3 12l-11 5l-31 2q-10 -1 -12 -2l-4 -12l-2 -30q-12 0 -23 -3l-12 29q-5 10 -7 11l-13 -2l-28 -11q-9 -5 -10 -8l2 -12l11 -30q-10 -6 -19 -14l-21 19l-11 6
l-11 -7l-20 -23l-6 -11q0 -2 2 -4.5t4 -4.5l2 -2l24 -22q-5 -11 -9 -23l-36 -1q-10 0 -13 -3l-3 -12v-31q2 -9 3 -11l13 -4l30 1q1 -9 3 -17l-28 -13q-9 -5 -10 -8l1 -13l14 -28q5 -8 7 -9l13 2l26 13q6 -9 13 -18l-17 -21q0 -1 -1 -2t-2.5 -4.5t-1.5 -5.5l7 -10l24 -19
l11 -5l11 8l17 22q9 -4 19 -7l-1 -32q0 -9 3 -12l11 -4l31 -1q10 1 12 3l4 12l1 25q13 1 25 4l9 -27q4 -9 7 -11l13 1l29 10q9 4 10 6l-1 13l-10 32q9 6 17 14l21 -19q1 0 2.5 -1l4.5 -3t5 -1l10 6l20 24l5 11q0 2 -7 10v0l-25 22l6 14l35 1q10 0 13 3l3 12v30v0zM1006 30
q-27 0 -46.5 19t-19.5 46.5t19.5 46.5t46.5 19t46.5 -19t19.5 -46.5t-19.5 -46.5t-46.5 -19z" />
    <glyph glyph-name="order" unicode="&#xe6ad;" 
d="M726 529h-357q-7 0 -12 -5t-5 -12t5 -12t12 -5h357q7 0 12 5t5 12t-5 12t-12 5zM726 416h-357q-7 0 -12 -5t-5 -12t5 -12t12 -5h357q7 0 12 5t5 12t-5 12t-12 5zM726 304h-357q-7 0 -12 -5t-5 -12t5 -12t12 -5h357q7 0 12 5t5 12t-5 12t-12 5zM297 304h-20q-7 0 -12 -5
t-5 -12t5 -12t12 -5h20q7 0 12 5t5 12t-5 12t-12 5zM726 192h-357q-7 0 -12 -5t-5 -12t5 -12t12 -5h357q7 0 12 5t5 12t-5 12t-12 5zM297 192h-20q-7 0 -12 -5t-5 -12t5 -12t12 -5h20q7 0 12 5t5 12t-5 12t-12 5zM297 417h-20q-7 0 -12 -5t-5 -12t5 -12t12 -5h20q7 0 12 5
t5 12t-5 12t-12 5zM297 530h-20q-7 0 -12 -5t-5 -12t5 -12t12 -5h20q7 0 12 5t5 12t-5 12t-12 5zM844 799h-665q-21 0 -35.5 -14.5t-14.5 -35.5v-752q0 -21 14.5 -35.5t35.5 -14.5h665q21 0 35.5 14.5t14.5 35.5v752q0 21 -14.5 35.5t-35.5 14.5zM859 -3q0 -6 -4.5 -10
t-10.5 -4h-665q-6 0 -10 4t-4 10v752q0 6 4 10t10 4h665q6 0 10.5 -4t4.5 -10v-752v0zM424 640h171q10 0 17 7t7 16.5t-7 16.5t-17 7h-171q-9 0 -16 -7t-7 -16.5t7 -16.5t16 -7z" />
    <glyph glyph-name="tree-close" unicode="&#xe664;" 
d="M0 800v-1024h1024v1024h-1024zM961 -155h-894v890h894v-890zM448 32h128v192h193v128h-193v192h-128v-192h-193v-128h193v-192z" />
    <glyph glyph-name="tree-open" unicode="&#xe668;" 
d="M0 800v-1024h1024v1024h-1024zM961 -155h-894v890h894v-890zM256 352h512v-128h-512v128z" />
    <glyph glyph-name="jian" unicode="&#xe663;" 
d="M678 278h-334q-9 0 -16 6.5t-7 16t7 16.5t16 7h334q10 0 16.5 -7t6.5 -16.5t-6.5 -16t-16.5 -6.5zM511 -147q-91 0 -174 35.5t-143 95.5t-95.5 143t-35.5 174t35.5 174t95.5 143t143 95.5t174 35.5t174 -35.5t143 -95.5t96 -143t36 -174t-36 -174t-96 -143t-143 -95.5
t-174 -35.5zM511 703q-109 0 -201.5 -54t-146.5 -146.5t-54 -201.5t54 -201.5t146.5 -146.5t201.5 -54t202 54t146.5 146.5t53.5 201.5t-53.5 201.5t-146.5 146.5t-202 54z" />
    <glyph glyph-name="guanbi2" unicode="&#xe698;" 
d="M829 618q-63 62 -144.5 96.5t-172.5 34.5q-90 0 -171.5 -34t-143.5 -95l-1 -2q-63 -62 -97.5 -143.5t-34.5 -173.5q0 -90 34 -171t96 -143l2 -2q61 -62 143 -96.5t173 -34.5t172.5 34.5t144.5 96.5v0q61 62 96 144t35 172q0 91 -35 173t-96 144zM779.5 33.5
q-52.5 -52.5 -121.5 -81.5t-146 -29t-146.5 29t-121.5 82l-2 1q-51 52 -80 121t-29 145q0 78 29.5 147t81.5 121l1 2q53 51 121.5 80t145.5 29t146 -29t121.5 -81.5t82 -121.5t29.5 -146.5t-29.5 -146.5t-82 -121.5zM631 495q-11 7 -23 4t-19 -14t-4 -23t14 -19
q59 -36 75.5 -103.5t-19.5 -126.5q-23 -38 -61.5 -59.5t-81.5 -21.5q-47 0 -87 25q-38 23 -59.5 61.5t-21.5 82.5q1 46 25 86q23 39 63 60q11 6 14.5 18.5t-2.5 23.5t-18 14.5t-24 -2.5q-53 -29 -86 -82q-33 -54 -33 -118q0 -59 28 -111q29 -54 82 -85q55 -34 119 -34
q27 0 54 6q92 23 141.5 104t27 173t-103.5 141zM512 280q13 0 22 9t9 21v249q0 13 -9 22t-22 9t-22 -9t-9 -22v-249q0 -12 9 -21t22 -9z" />
    <glyph glyph-name="daoru2" unicode="&#xe6ea;" 
d="M139 153h223v-149h-223v149v0zM362 227l223 -149l-223 -149v298zM361 749l-148 -148v-299h74v223h149v149h373v-745h-224v-74h224h74v74v820h-522zM361 749z" />
    <glyph glyph-name="triangle-right" unicode="&#xe68c;" 
d="M123 -149v898l778 -449l-778 -449v0zM180 651v-702l607 351l-607 351v0zM180 651z" />
    <glyph glyph-name="androidcancel" unicode="&#xe68a;" 
d="M512 716q-173 0 -294.5 -121.5t-121.5 -294.5t121.5 -294.5t294.5 -121.5t294.5 121.5t121.5 294.5t-121.5 294.5t-294.5 121.5zM720 150l-58 -58l-150 150l-150 -150l-58 58l150 150l-150 150l58 58l150 -150l150 150l58 -58l-150 -150z" />
    <glyph glyph-name="qi" unicode="&#xe6b8;" 
d="M910 276l-1 3l-93 298v0q-4 12 -13.5 19t-22.5 7q-8 0 -16 -4v0q-52 -18 -110 -6t-120 49q-66 40 -135.5 49t-129.5 -19v0q-2 -1 -6 -4q-26 -16 -26 -46q0 -6 2 -11l2 -9l98 -312l2 -6q9 -23 34 -23q8 0 16 3q3 2 5 3q59 30 127 22t137 -51q51 -32 109.5 -39.5
t107.5 11.5l1 1q15 6 24.5 19.5t9.5 30.5q0 8 -2 15zM197 639q-5 15 -19 22.5t-29.5 2.5t-23 -19t-2.5 -29l214 -686q5 -15 19 -22.5t29 -3.5l2 1q15 5 22 18.5t2 28.5z" />
    <glyph glyph-name="celiang11" unicode="&#xe6bd;" 
d="M775 730q-31 1 -55 -22.5t-24 -55.5q-1 -32 22.5 -56t55.5 -25q33 0 57 23.5t23 55.5q-1 35 -23 57t-56 23zM775 620q-12 0 -20.5 8.5t-8.5 21.5q-1 12 7.5 21t21.5 9q12 0 20.5 -8t9.5 -21q0 -13 -8.5 -22t-21.5 -9zM1008 646q-38 37 -105 106t-79 84q-1 1 -5 6t-5 6
t-5 5.5t-5.5 6t-5 5.5t-5.5 5.5l-6 4.5t-7 4.5t-6.5 3.5t-6.5 3q-7 4 -16 2t-14 -3.5t-12.5 -7.5t-12 -10.5l-11 -11l-10.5 -10.5q-11 -10 -675 -652q-32 -31 -2 -61q45 -44 126.5 -129.5t97.5 -102.5q19 -20 32.5 -20t33.5 19q47 46 221 214t310.5 300t146.5 141
q13 12 17.5 16.5t13.5 16t10 19t-2 18.5t-13 22zM916 582q-43 -42 -155 -151q-146 -141 -453 -437q-21 -19 -36 -19t-35 20q-81 83 -128 133q-27 28 -7 55q49 -47 63 -61q12 -11 25.5 -9.5t16.5 15.5q4 15 -8 29q-6 8 -60 64q3 2 33 31.5t31 30.5q61 -59 63 -60
q16 -16 33 -9q11 5 12.5 17t-7.5 23q-5 5 -63 66l47 48q108 -101 112 -105q24 -22 39 -3q15 18 -3 37q-33 34 -89 92q-3 3 -15 16q2 3 13.5 14.5t11.5 12.5q12 -10 32 -30.5t29 -28.5q23 -23 40 -7q19 18 -5 41t-62 57q9 10 66 65q59 -54 66 -60q20 -19 37 -4q20 17 -2 38
q-5 5 -65 60q5 5 22 21q9 -8 31 -27.5t33 -30.5q24 -22 40 -4q18 18 -5 39q-12 11 -35 31t-29 25q24 23 47.5 48t39 42l31 34t25.5 27t21 19t18 12t15.5 3t16 -4.5t15.5 -12.5q42 -42 141 -146q27 -28 -4 -57z" />
    <glyph glyph-name="iconfontcolor73" unicode="&#xe65e;" 
d="M285 582v0v198q0 13 -9.5 22.5t-23 9.5t-22.5 -9.5t-9 -22.5v-198v0q-29 -10 -46.5 -34.5t-17.5 -55.5t17.5 -55.5t46.5 -34.5v0v-582q0 -13 9 -22.5t22.5 -9.5t23 9.5t9.5 22.5v582v0q28 10 46 34.5t18 55.5t-18 55.5t-46 34.5zM253 444q-20 0 -34 14t-14 34t14 34
t34 14t34 -14t14 -34t-14 -34t-34 -14zM544 182v0v598q0 13 -9.5 22.5t-22.5 9.5t-22.5 -9.5t-9.5 -22.5v-598v0q-28 -10 -46 -34.5t-18 -55.5t18 -55.5t46 -34.5v0v-182q0 -13 9.5 -22.5t22.5 -9.5t22.5 9.5t9.5 22.5v182v0q28 10 46 34.5t18 55.5t-18 55.5t-46 34.5z
M512 44q-20 0 -34 14t-14 34t14 34t34 14t34 -14t14 -34t-14 -34t-34 -14zM867 412q0 31 -17.5 55.5t-46.5 34.5v0v278q0 13 -9 22.5t-22.5 9.5t-23 -9.5t-9.5 -22.5v-278v0q-28 -10 -46 -34.5t-18 -55.5t18 -55.5t46 -34.5v0v-502q0 -13 9.5 -22.5t23 -9.5t22.5 9.5t9 22.5
v502v0q29 10 46.5 34.5t17.5 55.5zM771 364q-20 0 -34 14t-14 34t14 34t34 14t34 -14t14 -34t-14 -34t-34 -14z" />
    <glyph glyph-name="dayinji" unicode="&#xe6ed;" 
d="M900 579h-106v86q0 31 -16 55t-43 24h-424q-30 0 -56 -25t-26 -54v-86h-83q-30 0 -56 -25t-26 -54v-259q0 -28 25 -45t57 -17h83v-264q0 -28 25 -44.5t57 -16.5h424q59 0 59 61v264h106q29 0 44 16t15 46v259q0 31 -16 55t-43 24zM276 665q0 9 12.5 21t22.5 12h424
q12 0 12 -30v-3v-86h-471v86zM747 -76q0 -10 -7 -17t-17 -7h-424q-9 0 -16 7t-7 17v349q0 10 6.5 17t16.5 7h424q10 0 17 -7t7 -17v-349zM911 241v-4q0 -8 -1.5 -9.5t-9.5 -1.5h-106v38q0 32 -16 56t-43 24h-424q-30 0 -56 -25.5t-26 -54.5v-38h-83q-35 0 -35 15v259
q0 9 12.5 20.5t22.5 11.5h754q2 0 3.5 -0.5t3 -2t2 -3t1 -4t1 -4t0.5 -4.5v-4.5v-5v-4.5v-259zM678 192h-329q-10 0 -17 -6.5t-7 -16t7 -16.5t17 -7h329q10 0 17 7t7 16.5t-7 16t-17 6.5zM678 56h-329q-10 0 -17 -7t-7 -16.5t7 -16.5t17 -7h329q10 0 17 7t7 16.5t-7 16.5
t-17 7z" />
    <glyph glyph-name="jiagongsisolid" unicode="&#xe6a0;" 
d="M591 576h401v-53h-401v53zM533 -37v903h-458v-903h-70v-61h606v26q-16 16 -29 35h-49zM247 179h-115v115h115v-115zM247 407h-115v115h115v-115zM247 638h-115v114h115v-114zM472 179h-114v115h114v-115zM472 407h-114v115h114v-115zM472 638h-114v114h114v-114zM700 365
q51 22 106 22t105 -22q45 -19 81 -52v147h-401v-180q11 15 23 27q38 38 86 58zM805.5 329q-88.5 0 -151 -62.5t-62.5 -151t62.5 -151t151 -62.5t151 62.5t62.5 151t-62.5 151t-151 62.5zM935 90h-104v-104q0 -11 -7.5 -18t-18 -7t-18 7t-7.5 18v104h-104q-11 0 -18.5 7.5
t-7.5 18t7.5 18t18.5 7.5h104v104q0 11 7.5 18.5t18 7.5t18 -7.5t7.5 -18.5v-104h104q10 0 17.5 -7.5t7.5 -18t-7.5 -18t-17.5 -7.5z" />
    <glyph glyph-name="jia" unicode="&#xe66e;" 
d="M514 811q-116 0 -215.5 -57.5t-157 -157t-57.5 -216t57.5 -216t157 -157t216 -57.5t216 57.5t157 157t57.5 216t-57.5 216t-157 157t-216.5 57.5v0zM514 -5q-104 0 -193 52t-140.5 140.5t-51.5 193t51.5 193.5t140.5 140.5t193.5 51.5t193 -51.5t140.5 -140.5t52 -193.5
t-52 -193t-140.5 -140.5t-193.5 -52v0zM677 412h-132v131q0 9 -10 16t-20 7t-20.5 -7t-10.5 -16v-131h-132q-9 0 -16 -10.5t-7 -20.5t7 -20t16 -10h132v-133q0 -9 10.5 -16t20.5 -7t20 7t10 16v133h132q9 0 15.5 10t6.5 20t-6.5 20.5t-15.5 10.5v0zM677 412z" />
    <glyph glyph-name="fix_sent" unicode="&#xe6ae;" 
d="M172 -178q-24 4 -40 22.5t-16 43.5v742q0 28 19.5 47.5t47.5 19.5h82q10 0 16.5 6.5t6.5 16t-6.5 16t-16.5 6.5h-82q-46 0 -79 -33t-33 -79v-742q0 -34 18.5 -61.5t48.5 -40.5q13 18 34 36zM841 742h-81q-10 0 -16.5 -6.5t-6.5 -16t6.5 -16t16.5 -6.5h81q28 0 47.5 -19.5
t19.5 -47.5v-742q0 -25 -15.5 -43.5t-39.5 -22.5q20 -17 34 -36q30 13 48 40.5t18 61.5v742q0 46 -33 79t-79 33zM732 611h-440q-21 0 -35.5 -14.5t-14.5 -35.5t14.5 -35.5t35.5 -14.5h440q21 0 35.5 14.5t14.5 35.5t-14.5 35.5t-35.5 14.5zM646 720q0 33 -23.5 56.5
t-56.5 23.5h-108q-33 0 -56.5 -23.5t-23.5 -56.5v-114h268v114zM512 649q-22 0 -37.5 15.5t-15.5 37.5t15.5 37.5t37.5 15.5t37.5 -15.5t15.5 -37.5t-15.5 -37.5t-37.5 -15.5zM624 -126q-3 1 -6 3t-8 7.5t-7.5 13t-2 21t6.5 29.5v0q38 39 58.5 85.5t20.5 116.5h-347
q0 -71 20 -117.5t59 -85.5q6 -19 6 -32t-7.5 -22.5t-12.5 -13t-10 -5.5q-121 -42 -184 -98h605q-65 57 -191 98zM709 247q0 54 -34.5 98t-91.5 60q-7 3 -21.5 -60t-14.5 -70v147q0 9 -6 15t-14 6h-30q-8 0 -14 -6t-6 -15v-147q-1 9 -4 22.5t-9.5 42.5t-12.5 48t-10 17
q-57 -16 -91.5 -59.5t-34.5 -98.5q0 -4 -5 -6t-11.5 -4t-13.5 -7t-11.5 -19t-4.5 -37h486q0 23 -4.5 37t-11.5 19t-13.5 7t-11.5 3.5t-5 6.5z" />
    <glyph glyph-name="517quexiantibaobiao" unicode="&#xe6ab;" 
d="M383 475v176h-313v-176v-19v-506h696l-1 17v13q0 74 50.5 126.5t123.5 55.5l15 1v312h-571zM100 620h252v-145h-252v145zM923 192q-76 -9 -130 -64q-59 -62 -59 -147h-634v463h823v-252zM181 365h592v-30h-592v30zM181 242h592v-30h-592v30zM181 107h440v-31h-440v31z
" />
    <glyph glyph-name="xiao63" unicode="&#xe66f;" 
d="M278 277h218v-219q0 -8 5.5 -13.5t13.5 -5.5t14 5.5t6 13.5v219h218q8 0 13.5 5.5t5.5 13.5t-5.5 13.5t-13.5 5.5h-218v219q0 8 -6 13.5t-14 5.5t-13.5 -5.5t-5.5 -13.5v-219h-218q-8 0 -13.5 -5.5t-5.5 -13.5t5.5 -13.5t13.5 -5.5zM523.5 -173q93.5 0 179 36.5
t147.5 98.5t98.5 147.5t36.5 179.5t-36.5 179.5t-98.5 147.5t-147.5 98.5t-179 36.5t-179 -36.5t-147.5 -98.5t-98.5 -147.5t-36.5 -179.5t36.5 -179.5t98.5 -147.5t147.5 -98.5t179 -36.5zM523.5 713q114.5 0 212.5 -57t154.5 -154.5t56.5 -212.5t-56.5 -212.5t-154.5 -154
t-212.5 -56.5t-212 56.5t-154.5 154t-57 212.5t57 212.5t154.5 154.5t212 57z" />
    <glyph glyph-name="jian1" unicode="&#xe670;" 
d="M515 718q-114 0 -210 -56t-152 -152.5t-56 -210.5t56 -210.5t152 -152.5t210 -56t210.5 56t152.5 152.5t56 210.5t-56 210.5t-152.5 152.5t-210.5 56zM650 270h-270q-12 0 -20.5 8.5t-8.5 20.5t8.5 20.5t20.5 8.5h270q12 0 20.5 -8.5t8.5 -20.5t-8.5 -20.5t-20.5 -8.5z
" />
    <glyph glyph-name="daochu" unicode="&#xe605;" 
d="M839 451h1l-314 332q-6 7 -15 7t-15 -7l-311 -332q-5 -3 -5 -7q0 -6 6 -9.5t15 -3.5v0v0h157q26 -14 32 -42v-130q0 -17 12.5 -29t29.5 -12h160q17 0 29.5 12t12.5 29v135q11 25 29 37h167v1q14 3 14 12q0 4 -5 7zM390 174v-18q0 -17 12.5 -29.5t29.5 -12.5h160
q17 0 29.5 12.5t12.5 29.5v18h-244zM960 174q0 9 -7.5 15.5t-17.5 6.5t-17.5 -6.5t-7.5 -15.5v0v-103q0 -21 -15.5 -36.5t-37.5 -15.5h-691q-22 0 -37 15.5t-15 36.5v103v0q0 9 -7.5 15.5t-17.5 6.5t-17.5 -6.5t-7.5 -15.5v0v-91q0 -43 30.5 -74t73.5 -31h688q43 0 73.5 31
t30.5 74v91v0z" />
    <glyph glyph-name="mdribao" unicode="&#xe6c6;" 
d="M744 405q10 0 17 7t7 17v313q0 10 -7.5 16t-17.5 6h-587q-11 0 -19.5 -6.5t-8.5 -15.5v-733q0 -10 8.5 -15.5t19.5 -5.5h587q10 0 17.5 5.5t7.5 15.5v215q0 10 -7 17t-17 7t-17 -7t-7 -17v-188h-544v680h424l120 -107v-180q0 -10 7 -17t17 -7zM430 186q-10 0 -17 7
l-143 140q-8 7 -8 17t7 17t17 7t17 -7l123 -120l189 273q6 8 16 10t18 -3.5t10 -15.5t-4 -18l-205 -297q-7 -9 -18 -10h-2zM831 -86h-665q-7 0 -11.5 5t-4.5 11.5t4.5 11t11.5 4.5h649v747q0 7 4.5 11.5t11 4.5t11.5 -4.5t5 -11.5v-763q0 -6 -5 -11t-11 -5zM899 -154h-665
q-6 0 -11 4.5t-5 11.5t5 11.5t11 4.5h649v747q0 6 4.5 11t11.5 5t11.5 -5t4.5 -11v-763q0 -7 -4.5 -11.5t-11.5 -4.5z" />
    <glyph glyph-name="nan1" unicode="&#xe685;" 
d="M455 600q97 2 180 -44.5t132 -127.5t51 -178t-44.5 -180t-128 -132t-178 -51t-179.5 44.5t-132.5 128t-51 178t45 179.5t127.5 132.5t178 50.5v0zM467 -66q128 3 217 95t87 220t-94.5 217t-220.5 87t-217 -94.5t-87 -220.5t94.5 -217t220.5 -87v0zM455 581
q92 2 170.5 -42t125 -121t48.5 -168.5t-42 -170t-121 -125t-168.5 -48t-170 42t-125.5 120.5t-48.5 168.5t42.5 170t121 125.5t168 48v0zM467 -85q89 2 164 47t117.5 121.5t41 166t-46.5 164t-121.5 117.5t-166 41.5t-164 -47t-117.5 -122t-41.5 -165.5t47 -164t122 -117.5
t165.5 -41.5v0zM890 712q10 0 17 -6.5t7 -16.5t-6 -17l-184 -190q-7 -7 -17 -7.5t-17 6.5t-7 16.5t7 16.5l184 191q6 7 16 7v0zM891 693q1 0 3 -1q3 -3 0 -7l-184 -190q-3 -3 -6.5 0t-0.5 6l184 191q2 1 4 1v0zM891 693zM874 706q7 7 16.5 7t16.5 -6.5t8 -16.5l4 -265
q0 -10 -6.5 -17t-16.5 -7t-17 6.5t-7 16.5l-5 265q0 10 7 17v0zM609 668q-7 6 -7 16t6.5 17t16.5 7l265 5q10 0 17 -6.5t7 -16.5t-6.5 -17t-16.5 -7l-265 -5q-10 0 -17 7v0z" />
    <glyph glyph-name="zuihouye1" unicode="&#xe711;" 
d="M583 355l-381 -381q-12 -12 -29 -12t-29 12l-36 36q-12 12 -12 29.5t12 29.5l315 315l-315 315q-12 12 -12 29.5t12 29.5l36 35q12 13 29 13t29 -13l381 -380q12 -12 12 -29t-12 -29v0zM928 764v-760q0 -18 -12 -30t-29 -12h-51q-17 0 -29 12t-12 30v760q0 18 12 30
t29 12h51q17 0 29 -12t12 -30v0zM928 764z" />
    <glyph glyph-name="799baobiao" unicode="&#xe6c7;" 
d="M70 154h174v-277h-174v277zM307 292h173v-415h-173v415zM543 474h174v-597h-174v597zM780 723h173v-846h-173v846z" />
    <glyph glyph-name="mima" unicode="&#xe67e;" 
d="M810 411h-42v98q0 105 -75 179.5t-181 74.5t-181 -74.5t-75 -179.5v-98h-42q-49 0 -83.5 -35.5t-34.5 -84.5v-336q0 -50 34.5 -85t83.5 -35h596q49 0 83.5 35t34.5 85v336q0 49 -34.5 84.5t-83.5 35.5zM288 509q0 92 65.5 157t158.5 65t158.5 -65t65.5 -157v-98h-448v98z
M896 -45q0 -36 -25.5 -62t-60.5 -26h-596q-35 0 -60.5 26t-25.5 62v336q0 36 25.5 62t60.5 26h42h512h42q35 0 60.5 -26t25.5 -62v-336z" />
    <glyph glyph-name="xuanzekuang" unicode="&#xe678;" 
d="M57 783v0v-798q0 -23 16.5 -39.5t39.5 -16.5h798q23 0 39.5 16.5t16.5 39.5v798q0 23 -16.5 39.5t-39.5 16.5h-798q-23 0 -39.5 -16.5t-16.5 -39.5v0zM0 783q0 47 33 80t80 33h798q47 0 80 -33t33 -80v-798q0 -47 -33 -80t-80 -33h-798q-47 0 -80 33t-33 80v798v0z" />
    <glyph glyph-name="caiwubaobiao" unicode="&#xe6c8;" 
d="M708 28h-398q-6 0 -10 -4t-4 -9t4 -8.5t10 -3.5h398q6 0 9.5 3.5t3.5 8.5t-3.5 9t-9.5 4zM708 132h-398q-6 0 -10 -3.5t-4 -9t4 -9t10 -3.5h398q6 0 9.5 3.5t3.5 9t-3.5 9t-9.5 3.5zM708 235h-398q-6 0 -10 -4t-4 -9t4 -8.5t10 -3.5h398q6 0 9.5 3.5t3.5 9t-3.5 9
t-9.5 3.5zM310 314h159q6 0 10 3.5t4 9t-4 9t-10 3.5h-159q-6 0 -10 -3.5t-4 -9t4 -9t10 -3.5zM310 406h159q6 0 10 4t4 9t-4 8.5t-10 3.5h-159q-6 0 -10 -3.5t-4 -8.5t4 -9t10 -4zM310 509h159q6 0 10 4t4 9t-4 8.5t-10 3.5h-159q-6 0 -10 -3.5t-4 -8.5t4 -9t10 -4z
M884 610l-141 129q-10 9 -24 9h-559q-14 0 -23.5 -9t-9.5 -22v-834q0 -13 9.5 -22t23.5 -9h700q14 0 24 9t10 22v705q0 13 -10 22zM194 -85v770h505v-97q0 -8 6 -13.5t14 -5.5h108v-654h-633zM583.5 423.5q7.5 -5.5 17.5 -9.5q8 -4 18 -8l-1 -48q-11 3 -18 9q-3 3 -6.5 5
t-8.5 3q-16 0 -16 -13q0 -7 4.5 -12t12 -9t15.5 -6.5t16 -4.5v-12q0 -5 3.5 -7.5t8 -2.5t8 2.5t3.5 7.5v11q25 2 39.5 14.5t14.5 34.5q0 11 -4.5 19.5t-12 14.5t-16.5 9.5t-18 7.5l2 47q4 -1 7 -3q4 -3 5 -4q3 -2 6.5 -4t8.5 -2q8 0 11.5 4t3.5 10q0 3 -3 7.5t-8 8.5
t-12.5 7.5t-18.5 5.5l1 14q0 5 -4 8t-8 3t-7.5 -3t-3.5 -8l-1 -12q-26 -2 -40.5 -15.5t-14.5 -35.5q0 -11 4.5 -19.5t12 -14zM642 397q8 -4 12.5 -9t4.5 -12q0 -9 -5 -13.5t-13 -6.5zM607.5 472.5q5.5 5.5 13.5 6.5l-1 -41q-8 3 -13 8t-5 13t5.5 13.5z" />
    <glyph glyph-name="jungongyanshou" unicode="&#xe700;" 
d="M766 240q-80 0 -136.5 -56.5t-56.5 -136.5t56.5 -136.5t136.5 -56.5t136.5 56.5t56.5 136.5t-56.5 136.5t-136.5 56.5v0zM740 -65l-114 114l55 54l53 -53l111 109l60 -60q0 -1 -165 -164v0zM64 747v-727h447v52h-394v170h486q70 58 162 58h17v1h-665v170h675v-170h53v446
h-781v0zM792 526h-675v169h675v-169v0zM173 639h113v-58h-113v58v0zM455 186h58v-58h-58v58v0zM173 186h113v-58h-113v58v0zM683 415h58v-58h-58v58v0zM567 415h58v-58h-58v58v0zM455 415h58v-58h-58v58v0zM173 415h113v-58h-113v58v0zM683 639h58v-58h-58v58v0zM567 639h58
v-58h-58v58v0zM455 639h58v-58h-58v58v0zM455 639z" />
    <glyph glyph-name="zuosanjiao" unicode="&#xe694;" 
d="M60 15v738l441 -369l-441 -369v0zM60 15z" />
    <glyph glyph-name="guanbi3" unicode="&#xe68b;" 
d="M512 802q102 0 195 -40t160 -107t107 -160t40 -195t-40 -195t-107 -160t-160 -107t-195 -40t-195 40t-160 107t-107 160t-40 195t40 195t107 160t160 107t195 40zM668 481.5q0 -12.5 9 -20.5v0q68 -69 68 -165.5t-68 -164.5t-165 -68t-165 68t-68 164.5t68 165.5v0
q9 8 9 20.5t-9 21.5t-21 9t-21 -9q-86 -86 -86 -207.5t86 -207t207 -85.5t207 85.5t86 207t-86 207.5q-9 9 -21 9t-21 -9t-9 -21.5zM491 588q-9 -8 -9 -21v-271q0 -13 9 -21v0q9 -9 21 -9t21 9v0q9 8 9 21v271q0 13 -9 21.5t-21 8.5t-21 -9v0z" />
    <glyph glyph-name="jianliyuebaobiao" unicode="&#xe6c9;" 
d="M547 692q0 -16 -10.5 -27t-26.5 -11v0q-15 0 -25.5 11t-10.5 27v102q0 16 10.5 27t25.5 11v0q16 0 26.5 -11t10.5 -27v-102zM755 692q0 -16 -11 -27t-26 -11v0q-15 0 -25.5 11t-10.5 27v102q0 16 10.5 27t25.5 11v0q15 0 26 -11t11 -27v-102zM338 692q0 -16 -11 -27
t-26 -11v0q-15 0 -25.5 11t-10.5 27v102q0 16 10.5 27t25.5 11v0q15 0 26 -11t11 -27v-102zM229 751q-1 -30 2 -53t7 -37t13 -24t14 -14.5t15.5 -6.5t12 -2h8.5q30 1 50 15.5t27.5 34.5t10.5 39.5t2 33.5l-1 14h41q-1 -39 5.5 -67t14.5 -41t21 -19.5t19.5 -7t15.5 -0.5h3
q27 5 45 20.5t25 35t9.5 38t1.5 30.5l-1 13q22 1 41 0q7 -138 87 -138q24 2 40 16.5t22 34.5t8.5 39.5t1.5 33.5l-1 13q33 2 80 0q20 2 30 -8.5t9 -21.5v-11v-729q0 -22 -10 -32.5t-20 -12t-10 0.5h-714q-13 0 -22 4.5t-12.5 10.5t-5.5 12.5t-1.5 10.5t0.5 5v730q0 22 10 32
t21 9l10 -1h75v0zM843 546q0 12 -8.5 20.5t-20.5 8.5h-610q-12 0 -20.5 -8.5t-8.5 -20.5v-516q0 -12 8.5 -20.5t20.5 -8.5h610q12 0 20.5 8.5t8.5 20.5v516zM256 128h512v-64h-512v64zM298 320h64v-192h-64v192zM419 448h64v-320h-64v320zM539 512h64v-384h-64v384zM660 384
h64v-320h-64v320z" />
    <glyph glyph-name="check-round-full" unicode="&#xe672;" 
d="M512 -96q98 0 186.5 38t153 102.5t102.5 153t38 186.5t-38 186.5t-102.5 153t-153 102.5t-186.5 38t-186.5 -38t-153 -102.5t-102.5 -153t-38 -186.5t38 -186.5t102.5 -153t153 -102.5t186.5 -38v0zM512 -60q-90 0 -172.5 35t-142 94.5t-94.5 142t-35 172.5t35 172.5
t94.5 142t142 94.5t172.5 35t172.5 -35t142 -94.5t94.5 -142t35 -172.5t-35 -172.5t-94.5 -142t-142 -94.5t-172.5 -35zM512 153q96 0 163.5 67.5t67.5 163.5t-67.5 163.5t-163.5 67.5t-163.5 -67.5t-67.5 -163.5t67.5 -163.5t163.5 -67.5z" />
    <glyph glyph-name="web-link" unicode="&#xe67d;" 
d="M352 160l384 384q14 14 14 34t-14 34t-34 14t-34 -14l-384 -385q-14 -14 -14 -33.5t14 -33.5v0q14 -14 34 -14t34 14v0zM479 226q8 -11 8 -25q0 -18 -13 -30l-201 -201q-12 -13 -30 -13t-30 13l-115 114q-12 13 -12 30.5t12 30.5l201 201q13 12 31 12q10 0 20 -5l61 62
q-38 31 -87.5 28.5t-84.5 -37.5l-201 -201q-38 -37 -38 -90.5t38 -90.5l114 -114q38 -38 91 -38t90 38l201 201q36 36 37.5 87t-32.5 89zM986 743l-114 115q-38 37 -91 37t-90 -37l-202 -201q-35 -35 -37 -85t29 -87l61 61q-5 9 -5 20q0 18 13 30l201 202q12 12 30 12
t30 -12l115 -115q12 -12 12 -30t-12 -30l-201 -202q-13 -12 -31 -12q-13 0 -24 8l-61 -61q38 -33 89 -32t87 37l201 202q38 37 38 90t-38 90v0z" />
    <glyph glyph-name="cost-info" unicode="&#xe66b;" 
d="M187 -180q-27 0 -46.5 19.5t-19.5 47.5v733q0 28 19.5 47.5t46.5 19.5h81q9 0 15.5 6t6.5 15.5t-6.5 16t-15.5 6.5h-81q-46 0 -78.5 -32.5t-32.5 -78.5v-733q0 -46 32.5 -78.5t78.5 -32.5h193v44h-193zM837 731h-80q-10 0 -16 -6.5t-6 -16t6 -15.5t16 -6h80
q27 0 46.5 -19.5t19.5 -47.5v-733q0 -28 -19.5 -47.5t-46.5 -19.5h-193v-44h193q46 0 78.5 32.5t32.5 78.5v733q0 46 -32.5 78.5t-78.5 32.5zM729 601h-434q-21 0 -35.5 -14.5t-14.5 -35t14.5 -35t35.5 -14.5h434q21 0 35.5 14.5t14.5 35t-14.5 35t-35.5 14.5zM644 709
q0 33 -23 56t-56 23h-106q-33 0 -56 -23t-23 -56v-113h264v113zM512 639q-22 0 -37 15.5t-15 37t15 37t37 15.5t37 -15.5t15 -37t-15 -37t-37 -15.5zM696 7h-123v63h123q16 1 26.5 12.5t11.5 28.5q-1 16 -11 26q-9 11 -26 12h-95l100 138q13 17 13 36q-2 13 -7 22
q-4 8 -10 12q-6 5 -14 7t-18 3q-15 -2 -27 -11q-13 -8 -20 -19l-108 -156l-97 155q-8 10 -20 20q-12 9 -28 10q-26 -3 -35.5 -14t-13.5 -29q0 -14 5 -26q6 -12 13 -20l86 -128h-93q-17 -1 -26.5 -11.5t-11.5 -26.5q2 -17 12 -27q9 -11 26 -13h124v-65h-124
q-17 -1 -26.5 -11.5t-11.5 -25.5q2 -17 12 -30q9 -13 26 -14h124v-94q1 -28 17 -41.5t44 -13.5q58 0 60 55v95l123 -1q17 2 26 13q10 11 11 28q-1 16 -11 27q-8 12 -26 14z" />
    <glyph glyph-name="nan2" unicode="&#xe686;" 
d="M732 554q69 70 150 151q-16 1 -17 1h-129q-30 0 -30 22t30 22q12 -1 82.5 -0.5t82.5 -0.5q28 0 44 -16t17 -43v-170q0 -28 -22 -27q-21 1 -21 29v144l-1 -1l-1 -1l-1 -1l-1 -1l-1 -1l-1 -1l-1 -1l-1 -1l-1 -1l-1 -1l-1 -1l-1 -1l-1 -1l-1 -1l-1 -1l-1 -1l-1 -1l-1 -1
l-1 -1l-1 -1l-1 -1l-1 -1l-1 -1l-1 -1l-1 -1l-1 -1v-1l-1 -1l-1 -1l-1 -1l-1 -1l-1 -1l-1 -1l-1 -1l-1 -1l-1 -1l-1 -1l-1 -1l-1 -1l-1 -1l-1 -1l-1 -1l-1 -1l-1 -1l-1 -1l-1 -1l-1 -1l-1 -1l-1 -1l-1 -1l-1 -1l-1 -1l-1 -1l-1 -1l-1 -1l-1 -1l-1 -1l-1 -1l-1 -1l-1 -1
l-1 -1l-1 -1l-1 -1l-1 -1l-1 -1l-1 -1l-1 -1l-1 -1l-1 -1l-1 -1l-1 -1l-1 -1l-1 -1l-1 -1l-1 -1l-1 -1l-1 -1l-1 -1l-1 -1l-1 -1v-1l-1 -1l-1 -1l-1 -1l-1 -1l-2 -1l-1 -1l-1 -1l-1 -1l-1 -1l-1 -1l-1 -1l-1 -1l-1 -1l-1 -1l-1 -1l-1 -1l-1 -1l-1 -1l-1 -1l-1 -1l-1 -1
l-1 -1l-1 -1l-1 -1l-1 -1l-1 -1l-1 -1l-1 -1l-1 -1l-1 -1l-1 -1l-1 -1l-1 -1v-1l-1 -1l-1 -1l-1 -1l-1 -1l-1 -1l-1 -1l-1 -1l-1 -1l-1 -1l-1 -1l-1 -1l-1 -1l-1 -1l-1 -1l-1 -1l-1 -1l-1 -1l-1 -1l-1 -1l-1 -1l-1 -1l-1 -1l-1 -1l-1 -1l-1 -1l-1 -1l-1 -1l-1 -1l-1 -1
l-1 -1l-1 -1l-1 -1l-1 -1l-1 -1l-1 -1l-1 -1q124 -146 89 -338q-27 -150 -151 -244q-124 -95 -279 -81t-262 130q-68 75 -92.5 172t0.5 195t94 175q68 75 165 109t204 15t194 -94zM465 -106q97 0 180 48t131 130.5t48 179.5t-48 180t-131 131.5t-180 48.5t-179.5 -48
t-131 -131t-48.5 -180q0 -98 48 -180.5t130.5 -130.5t180.5 -48z" />
    <glyph glyph-name="up" unicode="&#xe657;" 
d="M-1 106h97l416 416l416 -416h97l-513 513z" />
    <glyph glyph-name="1173excelbiaoge" unicode="&#xe6ca;" 
d="M716 414h-118l-84 -123l-83 123h-119l142 -212l-160 -235h229v80h-53l44 65l98 -145h122l-160 235zM909 573l-125 125q-21 21 -56 35.5t-64 14.5h-530q-29 0 -49.5 -20.5t-20.5 -49.5v-755q0 -29 20.5 -49.5t49.5 -20.5h754q29 0 49.5 20.5t20.5 49.5v531q0 29 -14.5 64
t-34.5 55v0zM734 667q6 -4 10 -8l125 -125q4 -4 8 -10h-143v143v0zM902 -77q0 -6 -4 -10t-10 -4h-754q-5 0 -9.5 4t-4.5 10v755q0 6 4.5 10t9.5 4h530q7 0 14 -2v-222h223q1 -8 1 -14v-531v0zM902 -77z" />
    <glyph glyph-name="set" unicode="&#xe606;" 
d="M772 313q2 -10 -1 -23q-2 -14 -7.5 -27.5t-13.5 -24.5t-17.5 -16t-16.5 -5t-15 3t-20 5t-24 0q-12 -1 -24.5 -5t-20.5 -13q-19 -20 -22.5 -45t7.5 -48q7 -16 -3 -32q-4 -6 -15 -13q-10 -6 -22 -12q-12 -5 -26 -9q-13 -3 -24 -3q-7 0 -13 6q-6 5 -9 12v0q-9 24 -30 42
t-48 18t-49 -18t-30 -41q-4 -10 -12 -14.5t-17 -4.5q-12 0 -25.5 4t-27.5 10t-25 14t-16 16q-4 5 -4.5 12.5t5.5 21.5q9 18 7 41t-20 43q-11 12 -27 15q-15 4 -30 3q-16 -1 -34 -6q-11 -3 -22 1q-8 3 -16 15q-7 11 -13 25t-9 28.5t-2 24.5q2 17 16 22q23 9 42 30.5t19 48.5
q0 28 -18.5 48.5t-42.5 29.5q-7 3 -12 12t-5 18q0 10 4 23q3 12 8 24t12 22q6 10 14 15q6 4 12 3t13 -3q24 -10 49.5 -6.5t45.5 22.5q9 10 14 23q4 15 5 28q2 13 0 24q-1 10 -2 16q-1 5 -2.5 11t1.5 11q4 11 16.5 19.5t26.5 13.5t28 8q13 3 21 3q10 0 16 -6.5t8 -13.5
q9 -22 28.5 -38t46.5 -16q28 0 49 15.5t30 38.5q3 7 10 13.5t14 6.5q11 0 24 -3t25.5 -8.5t23.5 -14.5q10 -9 17 -19q4 -6 2 -14q-2 -7 -3 -10q-10 -23 -6.5 -48t22.5 -44t46.5 -21t51.5 9q6 4 15 3t16 -7q12 -11 21 -33.5t12 -45.5q1 -13 -4 -21q-6 -8 -13 -10
q-24 -8 -41.5 -30t-17.5 -49t14.5 -47t38.5 -29q5 -3 9 -6q9 -7 12 -18v0v0zM406 242q35 0 66.5 13t55 37t37 55t13.5 66.5t-14 66.5q-13 31 -36 54q-24 24 -55.5 37t-67 13t-66.5 -13t-54 -36.5t-36.5 -54.5t-13.5 -66.5t13 -66.5q14 -31 37 -55q23 -23 54 -36.5t67 -13.5
v0zM1006 -50q1 -5 -0.5 -12t-4.5 -14t-6.5 -12.5t-8.5 -8t-9 -2.5t-8 2q-4 1 -10 2t-12.5 0.5t-12.5 -2.5t-11 -7q-9 -10 -11 -23t4 -25q4 -8 -2 -16q-2 -3 -7 -6.5t-12 -6.5q-6 -3 -13 -4.5t-12 -1.5q-4 0 -7 2.5t-4 6.5h-1q-4 12 -15 21t-25 9t-25 -9t-15 -21q-2 -5 -6 -7
t-9 -2q-6 0 -13 2t-14 5t-12.5 7t-8.5 8q-2 3 -2.5 7t3.5 10q4 10 3 22t-10 22q-6 6 -14 7.5t-15 1.5q-9 0 -18 -3q-5 -2 -11 1q-5 1 -8.5 7t-6.5 13t-5 14.5t-1 12.5q1 9 8 11q12 5 22 16t10 25t-9.5 24.5t-22.5 15.5q-3 1 -5.5 6t-2.5 9q0 6 1.5 12t4.5 13q2 6 5.5 11
t7.5 7t7 1.5t6 -1.5q12 -5 25.5 -3t23.5 12q5 5 7 12t3 14v12q-1 5 -1 8q-1 3 -1.5 6t0.5 6q2 5 8.5 9.5t13.5 7t14 4t11 1.5q5 0 8 -3.5t5 -6.5q4 -11 14 -19.5t24 -8.5t25 8t15 20q2 3 5.5 6.5t7.5 3.5q5 0 12 -1.5t13.5 -4.5t11.5 -7.5t9 -9.5q2 -3 1 -7t-2 -5
q-5 -12 -3 -25t11.5 -22.5t24 -10.5t26.5 4q3 2 7.5 1.5t8.5 -3.5q6 -5 10.5 -16.5t6.5 -23.5q0 -7 -3 -11t-6 -5q-12 -4 -21 -15.5t-9 -25.5t7.5 -24t19.5 -15q3 -1 5 -3q4 -3 6 -9v0v0zM818 -86q18 0 34 6.5t28 19t19 28t7 34t-7 34.5t-19 28t-28 18.5t-34 6.5t-34 -6.5
t-28 -18.5t-19 -28t-7 -34.5t7 -34t19 -28t28 -19t34 -6.5v0z" />
    <glyph glyph-name="weixuanzhong" unicode="&#xe658;" 
d="M512 688q-109 0 -201 -53.5t-145.5 -145.5t-53.5 -201t53.5 -201t145.5 -145.5t201 -53.5t201 53.5t145.5 145.5t53.5 201t-53.5 201t-145.5 145.5t-201 53.5v0zM512 -66q-96 0 -177.5 47.5t-129 129t-47.5 177.5t47.5 177.5t129 129t177.5 47.5t177.5 -47.5t129 -129
t47.5 -177.5t-47.5 -177.5t-129 -129t-177.5 -47.5z" />
    <glyph glyph-name="no-radio" unicode="&#xe613;" 
d="M512 -96q-130 0 -240.5 64.5t-175 175t-64.5 240.5t64.5 240.5t175 175t240.5 64.5t240.5 -64.5t175 -175t64.5 -240.5q0 -198 -141 -339t-339 -141zM512 798q-112 0 -207.5 -55.5t-151 -151t-55.5 -207.5t55.5 -207.5t151 -151t207.5 -55.5t207.5 55.5t151 151
t55.5 207.5t-55.5 207.5t-151 151t-207.5 55.5z" />
    <glyph glyph-name="radio-check" unicode="&#xe671;" 
d="M512 -128q-104 0 -199 40.5t-163.5 109t-109 163.5t-40.5 199t40.5 199t109 163.5t163.5 109t199 40.5t199 -40.5t163.5 -109t109 -163.5t40.5 -199t-40.5 -199t-109 -163.5t-163.5 -109t-199 -40.5zM512 825q-90 0 -171.5 -35t-140.5 -94t-94 -140.5t-35 -171.5
t35 -171.5t94 -140.5t140.5 -94t171.5 -35t171.5 35t140.5 94t94 140.5t35 171.5t-35 171.5t-94 140.5t-140.5 94t-171.5 35zM241 384q0 -112 79.5 -191.5t191.5 -79.5t191.5 79.5t79.5 191.5t-79.5 191.5t-191.5 79.5t-191.5 -79.5t-79.5 -191.5z" />
    <glyph glyph-name="daoru3" unicode="&#xe6eb;" horiz-adv-x="1365" 
d="M670 570h532v-99h-532v99zM848 418h354v-99h-354v99zM962 268h240v-99h-240v99zM1280 812h-752q-35 0 -60 -24.5t-25 -60.5v-376q-23 -7 -54 -19q-42 -17 -70 -36q-31 -20 -59 -49q-104 -105 -129 -274q-3 -20 -9 -85q0 -2 -1 -6v1q1 3 3 6q-4 -10 -4 -19v-9.5v-9.5
q0 -37 5 -48q9 -18 30 -15t25 22v1l3 6l7 14q8 14 17 30q15 27 34 55q17 23 37 47q21 25 45 47q4 4 11 10q3 2 5 4l5 3q11 9 25 18q12 7 26 15q14 6 27 11q10 4 21 7v-101q0 -35 25 -60.5t60 -25.5h752q35 0 59.5 25.5t24.5 60.5v750q0 36 -24.5 60.5t-59.5 24.5zM513 -31
q-18 21 -18 50v65q7 0 16 -1h5q-1 -44 -3 -114zM554 136q-42 8 -71 7q-39 -1 -74 -13q-63 -21 -124 -74q-46 -41 -94 -108q-1 -2 -4 -6q0 1 0.5 3t0.5 4q3 32 15 74q4 17 11 36q2 7 6 16q1 3 3 8q0 2 2 4v1v1q15 33 34 64q18 26 43 52q11 12 25 24q3 1 7 5l1 1q1 0 2 1
q7 5 16 12q14 8 30 17q15 7 34 14q42 16 76 21h1q0 1 1 1h6q6 1 15 1q12 1 29 3q13 1 21.5 9t8.5 21v92q26 -20 73.5 -55.5t63.5 -47.5q93 -70 144 -109q-47 -35 -141.5 -105t-140.5 -105q0 18 1 52t1 51q0 9 -6.5 18t-15.5 10zM1313 19q0 -32 -22 -54.5t-53 -22.5h-650l1 1
l1 1h1l1 1l1 1l1 1h1l1 1l1 1l1 1h1l1 1l1 1l1 1h1l1 1l1 1h1l1 1l1 1l1 1h1l1 1l1 1l1 1h1l1 1l1 1l1 1h1l1 1l1 1l1 1h1l1 1l1 1l1 1h1l1 1l1 1l1 1h1l1 1l1 1h1l1 1l1 1l1 1h1l1 1l1 1l1 1h1l1 1l1 1l1 1h1l1 1l1 1l1 1h1l1 1l1 1l1 1h1l1 1l1 1l1 1h1l1 1l1 1l1 1h1l1 1
l1 1h1l1 1l1 1l1 1h1l1 1l1 1l1 1h1l1 1l1 1l1 1h1l1 1l1 1l1 1h1l1 1l1 1l1 1h1l1 1l1 1l1 1h1l1 1l1 1h1l1 1l1 1l1 1h1l1 1l1 1l1 1h1l1 1l1 1l1 1h1l1 1l1 1l1 1h1l1 1l1 1l1 1h1l1 1l1 1l1 1h1l1 1l1 1l1 1h1l1 1l1 1h1l1 1l1 1l1 1h1l1 1l1 1l1 1h1l1 1l1 1l1 1h1l1 1
l1 1l1 1h1l1 1l1 1l1 1h1l1 1l1 1l1 1h1l1 1l1 1h1l1 1l1 1l1 1h1l1 1l1 1l1 1h1l1 1l1 1l1 1l1 1h1l1 1l1 1h1l1 1l1 1l1 1h1l1 1l1 1l1 1h1l1 1l1 1l1 1h1l1 1l1 1l1 1h1l1 1l1 1l1 1h1l1 1l1 1l1 1h1l1 1l1 1l1 1h1l1 1l1 1h1l1 1l1 1l1 1h1l1 1l1 1l1 1h1l1 1l1 1l1 1h1
l1 1l1 1l1 1h1l1 1l1 1l1 1h1l1 1l1 1l1 1h1l1 1l1 1h1l1 1l1 1l1 1h1l1 1l1 1l1 1h1l1 1l1 1l1 1h1l1 1l1 1l1 1h1l1 1l1 1l1 1h1l1 1l1 1l1 1h1l1 1l1 1l1 1h1l1 1l1 1h1l1 1l1 1l1 1h1l1 1l1 1l1 1h1l1 1l1 1l1 1h1l1 1l1 1l1 1h1l1 1l1 1l1 1h1l1 1l1 1l1 1h1l1 1l1 1h1
l1 1l1 1l1 1h1l1 1l1 1l1 1h1l1 1l1 1l1 1h1l1 1l1 1l1 1h1l1 1l1 1l1 1h1l1 1l1 1l1 1h1l1 1l1 1h1l1 1l1 1l1 1h1l1 1l1 1l1 1h1l1 1l1 1l1 1l2 1q14 10 14 25t-14 26q-75 57 -176 133q-150 114 -174 133v0v0q-9 8 -21 8h-4q-13 0 -22 -8.5t-9 -20.5v-123q-12 -1 -20 -2
v326q0 31 22 53t53 22h668q31 0 53 -22t22 -53v-667z" />
    <glyph glyph-name="add-bumen" unicode="&#xe6a1;" 
d="M737 102q-34 0 -64 -18.5t-44 -51.5h-167q-30 0 -53.5 22t-23.5 55v192q39 -19 77 -19h167q15 -31 43.5 -51t64.5 -20q48 0 82 33.5t34 81.5t-34 82t-82 34q-34 0 -64 -19t-44 -52h-167q-32 17 -54.5 40t-22.5 50v13q73 14 120 71t47 133q0 92 -60.5 155t-150.5 63
t-151 -64.5t-61 -153.5q0 -70 46 -127.5t114 -76.5v-359q0 -72 50.5 -122.5t122.5 -50.5h167q15 -30 43.5 -50t64.5 -20q48 0 82 33.5t34 81.5t-34 81.5t-82 33.5zM737 397q29 0 50 -21t21 -49.5t-21 -49.5t-49.5 -21t-49.5 21t-21 49q5 31 24 51t46 20zM366 570
q0 -26 -19 -26h-19q-6 0 -12.5 5.5t-6.5 13.5v83h-84q-12 0 -18.5 9.5t-6.5 16.5v19q0 6 5 12.5t14 6.5h83v84q0 12 9 18.5t17 6.5h19q13 0 19.5 -9t6.5 -16v-84h76q26 0 26 -19v-19q0 -13 -9 -19.5t-17 -6.5h-83v-76zM737.5 -83q-28.5 0 -49.5 20.5t-21 49.5t21 50t49.5 21
t49.5 -21t21 -50t-21 -49.5t-49.5 -20.5z" />
    <glyph glyph-name="xitongguanli" unicode="&#xe6fc;" 
d="M911 5l-206 203q21 44 21 92q0 88 -62.5 150.5t-151.5 62.5q-29 0 -57 -7l91 -91q29 -29 27 -71t-32.5 -72.5t-72.5 -32.5t-71 26l-91 92q-7 -28 -7 -57q0 -89 62.5 -151.5t150.5 -62.5q49 0 91 21l205 -204q20 -19 48.5 -18t49.5 22t22.5 50t-17.5 48v0v0zM856 -78
q-15 0 -26 10.5t-11 25.5t11 25.5t26 10.5t25.5 -10.5t10.5 -25.5t-10.5 -25.5t-25.5 -10.5v0v0zM960 395h-21h-48h-1q-14 1 -27 10h-1q-29 19 -28 54q0 9 3 20t10 19l11 11l24 24l15 15q15 20 15 45.5t-16 46.5l-42 42q-21 16 -46.5 16.5t-46.5 -14.5l-15 -15l-34 -34v0v0
q-30 -24 -65 -9q-11 5 -20 14q-15 16 -18 37v15v34v21q-3 26 -21.5 44t-44.5 21h-59q-26 -3 -44.5 -21t-22.5 -43v-21v-35v-14v0v0q0 -1 -0.5 -2.5t-0.5 -2.5v-1q0 -1 -1 -5v0q-1 -1 -1.5 -3l-0.5 -2v0l-2 -4q0 -1 -1 -2v0q-5 -11 -15 -19q-18 -15 -42 -15q-22 0 -39 13
l-11 11l-24 24l-15 15q-20 16 -46 15.5t-46 -16.5l-42 -42q-17 -20 -17 -46t15 -47l15 -14l34 -34v0l2 -3l1.5 -1.5t0.5 -1t0.5 -1.5t1.5 -2l0.5 -0.5l0.5 -0.5q0 -1 0.5 -2t1.5 -2v-2q1 0 1.5 -1.5t0.5 -2.5v-1q1 -1 1.5 -3t0.5 -3v0q1 -3 1 -6v0q4 -30 -19 -53v0
q-15 -15 -37 -18h-15h-34h-21q-26 -4 -44 -22t-21 -44v-60q3 -25 21 -43.5t43 -22.5h21h49q5 -1 6 -1h1q3 -1 4 -1q20 -7 33 -23.5t13 -38.5v0q0 -23 -14 -40l-11 -10v0l-24 -24l-15 -14q-15 -21 -15 -47t16 -46l42 -43q20 -16 46 -16t47 16l14 14l35 34v0l0.5 0.5t2 1.5
t1.5 2q2 0 3 1l1 1l1 1q1 0 2.5 0.5l1.5 0.5l2 1q1 1 3 1q1 1 2 1v0v0l5 2h1h2.5t2.5 1h1h4q29 1 49 -19q15 -15 19 -38l-1 -15v-33v-21q3 -26 21.5 -44t44.5 -21h60q25 3 43.5 20.5t22.5 43.5v20v36v13v0q2 18 13 32q1 2 2 3l0.5 0.5l1.5 1.5q6 6 13 11v0q1 0 4 2l1 1v0h1
q1 0 2 0.5t2 0.5l-57 57q-37 -10 -79 -10q-116 0 -198 82t-81 198q0 116 82.5 198.5t198.5 81.5q116 0 197.5 -82.5t81.5 -198.5q0 -39 -11 -76l58 -57q3 8 13 19q8 8 21 13q9 4 16 5h16h34h20q26 3 44 21.5t21 43.5v61q-3 25 -21 43.5t-43 22.5v0v0zM960 395z" />
    <glyph glyph-name="forms" unicode="&#xe6cb;" 
d="M818 -108q-5 0 -8 3t-3 7v623q0 4 -3 7t-7 3h-61q-4 0 -7 -3t-3 -7v-623q0 -4 -3 -7t-8 -3h-88q-5 0 -8 3t-3 7v759q0 4 -3 7t-7 3h-61q-4 0 -7 -3t-3 -7v-759q0 -4 -3 -7t-8 -3h-90q-4 0 -7 3t-3 7v503q0 4 -3 7t-7 3h-62q-4 0 -7 -3t-3 -7v-503q0 -4 -3 -7t-7 -3h-63
q-4 0 -7 3t-3 7v376q0 4 -3 7t-7 3h-62q-4 0 -7 -3t-3 -7v-376q0 -4 -3 -7t-7 -3h-93q-4 0 -7 -3t-3 -7v-31q0 -4 3 -7t7 -3h875q4 0 7 3t3 7v31q0 4 -3 7t-7 3h-131z" />
    <glyph glyph-name="shezhi" unicode="&#xe62a;" 
d="M215.5 522q-11.5 0 -19.5 8t-8 20v178q0 11 8 19t19.5 8t19.5 -8t8 -19v-178q0 -12 -8 -20t-19.5 -8zM215.5 -149q-11.5 0 -19.5 8t-8 19v425q0 11 8 19.5t19.5 8.5t19.5 -8.5t8 -19.5v-425q0 -11 -8 -19t-19.5 -8zM210 277q-58 0 -99.5 41.5t-41.5 99.5t41.5 99.5
t99.5 41.5t99.5 -41.5t41.5 -99.5t-41.5 -99.5t-99.5 -41.5zM210.5 504q-35.5 0 -61 -25.5t-25.5 -61t25.5 -60.5t61 -25t60.5 25t25 60.5t-25 61t-60.5 25.5zM236 450h-3l-4 1q-5 1 -8.5 5.5t-2.5 10.5t6 9t10 2l4 -1q6 -1 9 -5.5t2 -10.5q-2 -11 -13 -11zM163 390
q-6 0 -10 4t-4 10q0 43 38 65q12 6 18.5 -5.5t-5.5 -18.5q-23 -14 -23 -41q0 -6 -4 -10t-10 -4zM516.5 276q-11.5 0 -19.5 8t-8 19v425q0 11 8 19t19.5 8t19.5 -8t8 -19v-425q0 -11 -8 -19t-19.5 -8zM516.5 -149q-11.5 0 -19.5 8t-8 19v178q0 12 8 20t19.5 8t19.5 -8t8 -20
v-178q0 -11 -8 -19t-19.5 -8zM511.5 30q-58.5 0 -99.5 41.5t-41 99.5t41 99.5t99.5 41.5t99.5 -41.5t41 -99.5t-41 -99.5t-99.5 -41.5zM511.5 257q-35.5 0 -60.5 -25t-25 -60.5t25 -61t60.5 -25.5t61 25.5t25.5 61t-25.5 60.5t-61 25zM537 203h-3l-3 1q-6 1 -9 6t-2 10.5
t5.5 8.5t10.5 2l4 -1q5 -1 8.5 -5.5t2.5 -10.5q-3 -11 -14 -11zM464.5 144q-5.5 0 -9.5 4t-4 9q0 43 37 65q12 7 19 -5t-5 -19q-24 -13 -24 -41q0 -5 -4 -9t-9.5 -4zM832 618q-11 0 -19 8t-8 20v82q0 11 8 19t19 8t19 -8t8 -19v-82q0 -12 -8 -20t-19 -8zM832 -149
q-11 0 -19 8t-8 19v521q0 11 8 19t19 8t19 -8t8 -19v-521q0 -11 -8 -19t-19 -8zM827 373q-58 0 -99.5 41t-41.5 99.5t41.5 99.5t99.5 41t99.5 -41t41.5 -99.5t-41.5 -99.5t-99.5 -41zM826.5 600q-35.5 0 -60.5 -25.5t-25 -61t25 -60.5t60.5 -25t61 25t25.5 60.5t-25.5 61
t-61 25.5zM852 546h-2l-4 1q-6 1 -9 5.5t-2 10.5t6 9t10 2l4 -1q5 -1 8.5 -6t2.5 -10q-2 -11 -14 -11zM779.5 486q-5.5 0 -9.5 4t-4 10q0 43 38 65q11 6 18 -5.5t-5 -18.5q-23 -14 -23 -41q0 -6 -4.5 -10t-10 -4z" />
    <glyph glyph-name="tishi" unicode="&#xe696;" 
d="M512 -88q-81 0 -154 31q-71 30 -126 85t-85 126q-31 73 -31 153.5t31 154.5q30 71 85 125.5t126 84.5q73 32 154 32t154 -32q71 -30 126 -84.5t85 -125.5q31 -74 31 -154.5t-31 -153.5q-30 -71 -85 -126t-126 -85q-73 -31 -154 -31zM512 652q-143 0 -244 -101
t-101 -243.5t101 -243.5t244 -101t244 101t101 243.5t-101 243.5t-244 101zM477 551l7 -344h54l7 344h-68zM481 122.5q-13 -12.5 -13 -30.5t13 -30.5t31 -12.5t31 12.5t13 30.5t-13 30.5t-31 12.5t-31 -12.5z" />
    <glyph glyph-name="wendangguanli" unicode="&#xe701;" 
d="M209 293q7 0 12.5 5.5t5.5 13.5v222q0 8 -5.5 13.5t-13 5.5t-13 -5.5t-5.5 -13.5v-222q0 -8 5.5 -13.5t13.5 -5.5v0zM170 99v0q18 -18 44 -18t43 17v0l1 1v0q18 18 18 44t-18 44v0v0q-18 19 -44 19t-44 -19v0q-18 -18 -18 -44q0 -25 17 -43l1 -1v0zM196 161v0q7 7 18 7
t18 -7v0q7 -7 7 -18t-7 -18v0q-7 -7 -18 -7t-18 7h-1q-7 8 -7 18q0 11 8 18v0zM716 170v0q0 -27 18 -45q19 -18 44 -18t44 18q19 19 19 45q0 25 -18 43l-1 1q-18 18 -43.5 18t-44.5 -18q-18 -19 -18 -44v0zM760 188v0q7 7 18 7t18 -7l1 -1q7 -7 7 -17.5t-8 -18.5
q-7 -7 -18 -7t-18 7q-7 8 -7 18.5t7 18.5v0zM790 680v0q-3 13 -14 19t-24 3l-182 -49q-9 14 -26 14h-447q-13 0 -22 -9t-9 -21v-645q0 -13 9 -22t22 -9h447q13 0 22 9t9 22v389l106 -397q4 -12 15 -18.5t23 -3.5l216 58q13 3 19 14t3 24l-167 622v0zM302 23v0h-174v583h174
v-583v0zM513 23v0h-174v583h174v-583v0zM733 30v0l-151 563l157 42l151 -563l-157 -42v0zM433 81v0q25 0 43 18q19 17 19 44q0 25 -18 43l-1 1q-18 19 -43 19q-26 0 -44.5 -18.5t-18.5 -44.5q0 -27 18 -44q19 -18 45 -18v0zM415 161v0q6 7 18 7q10 0 17 -7l1 -1q7 -7 7 -17
q0 -11 -8 -18q-6 -7 -17 -7q-12 0 -18 7q-8 8 -8 18t8 18v0zM433 293v0q7 0 12.5 5.5t5.5 13.5v222q0 8 -5.5 13.5t-13 5.5t-13 -5.5t-5.5 -13.5v-222q0 -8 5.5 -13.5t13.5 -5.5v0zM674 563v0q-7 -2 -11 -9t-2 -14l58 -215q2 -8 8.5 -11.5t13.5 -1.5q8 2 11.5 8.5t1.5 14.5
l-57 215q-2 7 -9 11t-14 2v0z" />
    <glyph glyph-name="yewu" unicode="&#xe6f3;" 
d="M845 563h-672v-66h672v66v0zM845 452h-672v-68h672v68v0zM845 679h-672v-65h672v65v0zM424 184h182l134 101h105v45h-672v-45h123l128 -101v0zM742 222l-134 -101h-183l-128 101h-233v-301h896v301h-218v0zM742 222z" />
    <glyph glyph-name="icon-lock2" unicode="&#xe607;" 
d="M531 217v-50q0 -7 -5.5 -12.5t-13.5 -5.5t-13.5 5.5t-5.5 12.5v50q-20 6 -32.5 23t-12.5 39q0 27 18.5 46t45.5 19t45.5 -19t18.5 -46q0 -22 -12.5 -39t-32.5 -23v0zM789 -58h-554q-30 0 -51.5 23t-21.5 56v408h700v-408q0 -33 -21.5 -56t-51.5 -23v0zM832 397h-640v-354
q0 -31 18 -50.5t47 -19.5h510q29 0 47 19.5t18 50.5v354zM756 562q0 105 -69 173t-175 68t-175 -68t-69 -173v-126h-33v129q0 113 81 192t196 79t196 -79t81 -192v-129h-33v126v0z" />
    <glyph glyph-name="tishi1" unicode="&#xe695;" 
d="M511.5 748q-91.5 0 -174 -35.5t-142.5 -95.5t-95.5 -143t-35.5 -174t35.5 -174t95.5 -143t142.5 -95.5t174 -35.5t174.5 35.5t142.5 95.5t95 143t35.5 174t-35.5 174t-95 143t-142.5 95.5t-174.5 35.5zM510 -19q-27 0 -45.5 19t-18.5 46t18.5 45.5t45.5 18.5t46 -18.5
t19 -45.5t-19 -46t-46 -19zM595 462v-1v0v0v0v-1v0q-55 -254 -55 -255v0q-6 -30 -30 -30q-22 0 -30 32q-2 9 -15.5 71t-25.5 119t-12 58v0v0v0v1v0v0v1h-1v0v1v0v0v1v0v0v1v0v0v1v0v0v1v0q-2 9 -2 17q0 36 25 61.5t61 25.5t61.5 -25.5t25.5 -61.5q0 -8 -2 -17z" />
    <glyph glyph-name="jian01" unicode="&#xe665;" 
d="M164 732v-696h696v696h-696zM832 64h-640v640h640v-640zM360 370h304q6 0 10 4t4 10t-4 10t-10 4h-304q-6 0 -10 -4t-4 -10t4 -10t10 -4z" />
    <glyph glyph-name="jia01" unicode="&#xe66a;" 
d="M0 812v-1024h1024v1024h-1024zM983 -171h-942v942h942v-942zM288 280h204v-204q0 -9 6 -15t14 -6t14 6t6 15v204h204q9 0 15 6t6 14t-6 14t-15 6h-204v204q0 9 -6 15t-14 6t-14 -6t-6 -15v-204h-204q-9 0 -15 -6t-6 -14t6 -14t15 -6z" />
    <glyph glyph-name="tongji" unicode="&#xe6cc;" 
d="M34 -135q-14 0 -24 9.5t-10 23.5v809q0 14 10 23.5t24 9.5t23.5 -9.5t9.5 -23.5v-775h923q14 0 24 -10t10 -24t-10 -23.5t-24 -9.5h-956zM143 46q-12 0 -21 7q-11 8 -13 22t7 25l220 295q10 13 27 13q11 0 19 -5l198 -134l350 278q9 8 21 8q16 0 26 -13q9 -11 7.5 -24.5
t-12.5 -22.5l-369 -294q-9 -7 -21 -7q-10 0 -19 5l-192 130l-201 -269q-11 -14 -27 -14z" />
    <glyph glyph-name="login-out" unicode="&#xe65f;" 
d="M788 682v54q0 22 -15.5 38t-36.5 16h-577q-21 0 -36.5 -16t-15.5 -38v-704q0 -22 15.5 -38t36.5 -16h577q21 0 36.5 16t15.5 38v54h-577v596h577zM919 384l-236 244v-163h-314v-162h314v-163z" />
    <glyph glyph-name="nv1" unicode="&#xe682;" 
d="M62 29zM800 502q-23 55 -64 96t-96 64q-56 24 -117 24t-117 -24q-54 -23 -95.5 -64t-64.5 -96q-24 -56 -24 -117t24 -117q23 -54 64.5 -95.5t95.5 -64.5q45 -19 90 -23v-33h-108v-54h108v-91h54v91h107v54h-107v33q46 4 90 23q55 23 96 64.5t64 95.5q24 56 24 117
t-24 117zM697.5 210.5q-72.5 -72.5 -174.5 -72.5t-174.5 72.5t-72.5 174.5t72.5 174.5t174.5 72.5t174.5 -72.5t72.5 -174.5t-72.5 -174.5zM957 29z" />
    <glyph glyph-name="qizi" unicode="&#xe6b5;" 
d="M363 654q36 0 75 -12t75 -34q100 -60 189 -60q41 0 75 13q1 1 2 1l92 -295v-3q1 -1 1 -3q0 -9 -9 -13q-1 0 -1 -1q-27 -10 -60 -10q-30 0 -62 9q-31 9 -59 26q-95 59 -188 59q-63 0 -116 -29v0l-97 312l-2 7q-1 0 -1 1q0 8 7 12q1 1 3 2h1q32 18 75 18zM363 694
q-53 0 -94 -22v0q-2 -1 -6 -4q-26 -16 -26 -46q0 -6 2 -11l2 -9l98 -312l2 -6q9 -23 34 -23q8 0 16 3q3 2 5 3q44 24 97 24q81 0 167 -53q67 -41 142 -41q41 0 75 13l1 1q15 6 24.5 19.5t9.5 30.5q0 8 -2 15l-1 3l-93 298v0q-4 12 -13.5 19t-22.5 7q-8 0 -16 -4v0
q-28 -11 -62 -11q-77 0 -168 54q-85 52 -171 52v0zM160 666q-6 0 -11 -2q-16 -5 -23.5 -19t-2.5 -29l214 -686q4 -13 14.5 -20t22.5 -7q6 0 11 1l2 1q15 5 22 18.5t2 28.5l-214 687q-4 12 -14 19.5t-23 7.5v0z" />
    <glyph glyph-name="xiangxiasanjiao" unicode="&#xe68e;" 
d="M512 75l445 479h-889l444 -479v0z" />
    <glyph glyph-name="tongjifenxi" unicode="&#xe608;" 
d="M81 332l361 333l213 -204l199 228l-71 76h192v-192l-68 68l-252 -279l-213 211l-315 -294zM143 193h64v-324h-64v324zM399 377h64v-508h-64v508zM655 252h64v-383h-64v383zM911 444h64v-575h-64v575z" />
    <glyph glyph-name="gongsi1" unicode="&#xe666;" 
d="M830 48h-605q-10 0 -17.5 4t-7.5 9.5t7.5 9.5t17.5 4h605q10 0 17.5 -4t7.5 -9.5t-7.5 -9.5t-17.5 -4zM910 -34h-765q-11 0 -19 8t-8 19t8 19t19 8h765q11 0 19 -8t8 -19t-8 -19t-19 -8zM528 732l313 -169h-627zM528 785q-14 0 -24 -6l-365 -198q-27 -14 -20 -40
q4 -13 16 -21t28 -8h729q16 0 28 8t16 21q7 26 -20 40l-365 198q-10 6 -23 6v0zM227.5 130q-11.5 0 -19.5 7t-8 17v279q0 10 8 17t19.5 7t19.5 -7t8 -17v-279q0 -10 -8 -17t-19.5 -7zM827.5 130q-11.5 0 -19.5 7t-8 17v279q0 10 8 17t19.5 7t19.5 -7t8 -17v-279
q0 -10 -8 -17t-19.5 -7zM512 130v40h-7q-32 1 -59 13l8 28q30 -13 60 -13q23 0 36.5 10.5t13.5 27.5t-13 28t-41 22q-31 13 -47 28t-16 38q0 24 17 41.5t46 22.5l5 2v39h26v-38h7q27 -1 50 -10l-9 -27q-26 10 -50 10q-23 0 -35.5 -10t-12.5 -24q0 -15 13 -25t40 -21v0
q36 -15 50.5 -30.5t14.5 -40.5q0 -26 -17.5 -44.5t-48.5 -23.5l-6 -1v-42h-25z" />
    <glyph glyph-name="caiwubaobiao1" unicode="&#xe6cd;" 
d="M886 599l-134 119q-9 9 -23 9h-568q-13 0 -23 -9t-10 -21v-794q0 -12 10 -21t23 -9h702q13 0 23 10.5t10 22.5v672q0 12 -10 21zM690.5 232q-13.5 23 -35.5 39q-21 16 -49 27t-56 20l5 130q12 -3 21 -9q11 -6 16 -9q9 -6 20 -12q12 -5 26 -5q24 0 34 11q11 11 11 28
q0 8 -8.5 19.5t-23.5 23.5q-16 12 -39 22t-55 15l1 37q0 15 -11 22.5t-24 7.5t-24 -8q-11 -7 -11 -22l-1 -33q-80 -4 -123 -42q-44 -38 -44 -97q0 -32 14 -54q14 -23 36.5 -39t50.5 -27q26 -11 57 -21l-4 -133q-35 9 -53 25q-10 7 -21.5 13.5t-26.5 7.5q-47 0 -47 -35
q0 -18 14 -33q14 -14 35 -25q22 -11 48 -18.5t49 -11.5l-1 -33q0 -15 11 -22t24 -7t24 7t11 22l1 29q76 6 119 41q43 36 43 94q0 32 -13.5 55zM481 343q-25 10 -40 23q-16 14 -16 34q0 24 16.5 38.5t42.5 17.5zM585 135q-15 -13 -41 -16l4 111q23 -11 37.5 -25t14.5 -33
q0 -24 -15 -37zM853 -84l-682 -1v769h512v-113q0 -15 17 -15h153v-640z" />
    <glyph glyph-name="1" unicode="&#xe609;" 
d="M99 749l409 -409l-35 -34l-408 409zM227 589l-34 34l119 119l34 -34zM377 451l-34 34l114 113l34 -34zM666 382q100 0 170 -70.5t70 -170t-70 -170t-170 -70.5t-170.5 70.5t-70.5 170t70.5 170t170.5 70.5zM666 430q-120 0 -204.5 -84.5t-84.5 -204t84.5 -204t204 -84.5
t204.5 84.5t85 204t-85 204t-204 84.5v0z" />
    <glyph glyph-name="icon2" unicode="&#xe60a;" 
d="M647 709q-77 34 -162 34t-165 -35q-156 -70 -224 -235q-34 -82 -34 -171q0 -120 59 -223q28 -49 66 -89q59 -61 135.5 -95.5t159.5 -34.5v442l300 312q-59 61 -135 95v0zM532 -134q161 0 275 120l-275 287v-407v0zM930 459q-28 76 -85 135l-275 -288l275 -287
q57 60 85 134q30 76 30 153t-30 153v0zM930 459z" />
    <glyph glyph-name="tongjifenxi1" unicode="&#xe6ce;" 
d="M908 638h-791q-24 0 -41.5 -17t-17.5 -42v-554q0 -24 17.5 -41.5t41.5 -17.5h791q25 0 42.5 17.5t17.5 41.5v554q0 25 -17.5 42t-42.5 17zM908 45q0 -8 -5.5 -13.5t-14.5 -5.5h-751q-8 0 -14 5.5t-6 13.5v514q0 9 6 14.5t14 5.5h751q9 0 14.5 -5.5t5.5 -14.5v-514z
M749 125l-127 134l-9 12l-11 -12l-77 -81l-134 142l-10 10l-11 -10l-174 -183l21 -22l163 173l135 -142l11 -14l10 14l76 81l135 -142l19 -18l5 25l60 244l-28 7zM463 392q58 -126 58 -156q27 104 51 148q16 20 16 45q0 30 -20 50.5t-48 20.5t-47.5 -20.5t-19.5 -50.5
q0 -20 10 -37v0z" />
    <glyph glyph-name="zhaofang" unicode="&#xe702;" horiz-adv-x="1410" 
d="M913 -148h-6v216q-77 13 -132 68q-74 73 -72 180q1 52 22 99l-172 176l-352 -361v-378h-8q-25 0 -42 -17.5t-17 -41.5v-3h838v3q0 24 -17 41.5t-42 17.5v0zM705 -114h-301v306h301v-306v0zM553 626l183 -188q19 34 45 61q20 19 41 34l-269 276l-544 -557h179l365 374v0z
M1382 12l-116 114q-10 10 -24 12t-25 -4l-73 72q43 66 37 144t-61 133q-64 63 -156 60.5t-158 -69.5t-68 -158.5t62 -155.5q56 -55 136.5 -60t145.5 43l74 -74q-8 -25 10 -43l116 -115q12 -12 29.5 -12t29.5 13l41 40q12 13 12 30t-12 30v0zM1069 214q-48 -49 -114 -51.5
t-111 42.5t-43 111t50 114t113.5 50.5t110.5 -42.5t43 -110.5t-49 -113.5v0zM1069 214z" />
    <glyph glyph-name="baobiaoshuchu" unicode="&#xe6cf;" 
d="M273 419h358v-29h-358v29zM532 -58h-348v537h209v209h328v-448q30 0 60 -8v426v90h-448l-209 -209v-657h451q-27 26 -43 60zM721 210q-74 0 -126.5 -52t-52.5 -126.5t52.5 -127t126.5 -52.5t126.5 52.5t52.5 127t-52.5 126.5t-126.5 52zM721 -88v90h-119v59h119v90
l119 -120zM273 360h358v-30h-358v30zM273 300h358v-30h-358v30zM273 240h209v-30h-209v30z" />
    <glyph glyph-name="fenxiang" unicode="&#xe60b;" 
d="M859 114q-43 0 -78.5 -22.5t-53.5 -59.5l-418 220q5 18 5 35.5t-5 35.5l429 226q21 -29 52.5 -46t68.5 -17q62 0 105.5 43.5t43.5 105t-43.5 105.5t-105 44t-105.5 -44t-44 -105q0 -18 5 -36l-429 -225q-21 29 -52.5 45.5t-68.5 16.5q-62 0 -105.5 -43.5t-43.5 -105
t43.5 -105t105.5 -43.5q37 0 68.5 17t52.5 46l425 -224q-1 -8 -1 -13q0 -61 44 -105t105.5 -44t105 44t43.5 105.5t-43.5 105t-105.5 43.5zM760 635q0 41 29 70t70 29t70 -29t29 -70v-0.5v-0.5v-0.5v-0.5q0 -41 -29 -70t-70 -29t-70 29t-29 70v0.5v0.5v0.5v0.5zM165 188
q-41 0 -70 29.5t-29 70.5t29 70t70 29t70 -29t29 -70t-29 -70.5t-70 -29.5zM859 -134q-41 0 -70 29t-29 70t29 70t70 29t70 -29t29 -70t-29 -70t-70 -29z" />
    <glyph glyph-name="pinglun" unicode="&#xe60c;" 
d="M934 771h-844q-75 -2 -74 -74v-595q-1 -33 19 -54t55 -21h124v-149q0 -2 -0.5 -10.5t-0.5 -14t2 -12t6 -10.5q2 -2 12 -2q12 0 21 9l184 189h496q35 0 54.5 19.5t19.5 55.5v595q-1 70 -74 74zM958 126q0 -2 -0.5 -5t-4.5 -11.5t-9 -15t-14 -12t-21 -5.5q-109 -4 -496 0v0
l-149 -149v148q-96 -2 -149 1q-19 1 -31.5 13.5t-14.5 24.5l-3 11v546v5.5t3 12t8 15t15 11.5t23 6q615 6 794 0q22 -1 34.5 -13.5t13.5 -24.5l1 -12v-546v0zM780 449h-536q-12 0 -21 -7.5t-9 -17.5t9 -17.5t21 -7.5h536q12 0 21 7.5t9 17.5t-9 17.5t-21 7.5zM779 573h-534
q-12 0 -21.5 -7.5t-9.5 -17.5t9.5 -17.5t21.5 -7.5h534q12 0 21.5 7.5t9.5 17.5t-9.5 17.5t-21.5 7.5zM606 325h-361q-13 0 -22 -7.5t-9 -17.5t9 -17.5t22 -7.5h361q12 0 21 7.5t9 17.5t-9 17.5t-21 7.5z" />
    <glyph glyph-name="shenyue" unicode="&#xe60d;" 
d="M919 211q-39 -4 -86 -34.5t-89.5 -73.5t-84 -95.5t-71.5 -97t-51 -81.5q-9 12 -28 35.5t-24.5 29.5t-19.5 22t-20 20.5t-19 15.5t-25 18t-28.5 16.5t-38.5 20.5l76 51l127 -152q6 12 17.5 33t48 78.5t75.5 107t98 104t117 84.5q2 -39 6.5 -59.5t19.5 -42.5zM792 618
q0 16 -17 33.5t-34 17.5h-153v51h178q32 0 54.5 -23.5t22.5 -53.5v-305q-15 -15 -27 -26t-17 -14l-5 -4zM639 643h8h8t7 -0.5t7 -1t5.5 -1.5t5 -2t4 -3t3.5 -4.5t2 -5.5t1 -7v-51h-432v51q0 9 3.5 14.5t12.5 7.5t14.5 2.5t20.5 0.5h76q0 14 -1 66q-1 31 19 58t58 29
q45 2 73.5 -18t28.5 -58v-77h76v0zM474 745q-16 0 -27 -11t-11 -27t11 -27t27 -11t27 11t11 27t-11 27t-27 11zM156 592v-661q4 -76 76 -76h204q24 -13 34 -23t21 -28h-322q-25 0 -44.5 29t-19.5 58v752q0 33 22.5 55t53.5 22h178v-51h-127q-38 -2 -57 -22t-19 -55z
M741 -145q25 0 38 17t13 34l2 187q10 10 16.5 15.5t16 13t16.5 13.5v-280q0 -27 -12.5 -39t-38.5 -12h-220q0 9 6.5 16.5t18 17t17.5 17.5h127z" />
    <glyph glyph-name="tongshi1" unicode="&#xe60e;" 
d="M514 753q55 0 108.5 -26t85 -61t31.5 -64v-173q0 -61 -20.5 -131t-66.5 -106q-25 -19 -21 -65q1 -11 8 -18t20.5 -11.5t16.5 -6.5l231 -116q3 -2 7 -3q21 -9 19 -39v-64q-9 -22 -24 -22h-795q-6 0 -12 5.5t-8 10.5l-2 6v64q0 30 20 39q3 2 5 3l237 116q35 19 39 36
q5 45 -21 65q-45 36 -65.5 106t-20.5 131v173q0 28 32.5 63.5t87 61.5t108.5 26zM514 796q-67 0 -131 -32.5t-102 -82.5t-38 -101v-151q0 -41 7.5 -87.5t33.5 -103t67 -88.5l-240 -129l-7.5 -2.5t-15.5 -7.5t-19.5 -13t-15 -18.5t-5.5 -24.5v-89q0 -26 18.5 -44t44.5 -18
h802q26 0 44.5 18t18.5 44v89q0 40 -57 64l-6 2l-239 128q40 31 65.5 86.5t34 102.5t8.5 91v151q0 51 -38 101t-100.5 82.5t-129.5 32.5v0z" />
    <glyph glyph-name="tongshi2" unicode="&#xe60f;" 
d="M514 796q-67 0 -131 -32.5t-102 -82.5t-38 -101v-151q0 -41 7.5 -87.5t33.5 -103t67 -88.5l-240 -129l-7.5 -2.5t-15.5 -7.5t-19.5 -13t-15 -18.5t-5.5 -24.5v-89q0 -26 18.5 -44t44.5 -18h802q26 0 44.5 18t18.5 44v89q0 40 -57 64l-6 2l-239 128q40 31 65.5 86.5
t34 102.5t8.5 91v151q0 51 -38 101t-100.5 82.5t-129.5 32.5v0z" />
    <glyph glyph-name="shezhi1" unicode="&#xe610;" 
d="M979 407h-76q-5 22 -14 44l-5 10q-8 21 -19 40l53 53q9 9 9 21t-9 20l-111 111q-8 8 -20 8t-21 -8l-53 -53q-19 11 -42 20l-10 4q-20 9 -42 14v76q0 12 -8.5 20.5t-20.5 8.5h-156q-12 0 -20.5 -8.5t-8.5 -20.5v-75q-22 -6 -42 -14l-12 -6q-21 -8 -40 -19l-53 53
q-9 8 -21 8t-20 -8l-111 -111q-8 -8 -8 -20t8 -21l53 -53q-11 -19 -21 -42l-3 -10q-9 -20 -14 -42h-76q-12 0 -20.5 -8.5t-8.5 -20.5v-156q0 -12 8.5 -20.5t20.5 -8.5h75q6 -22 15 -44l5 -10q8 -21 19 -40l-53 -53q-8 -9 -8 -21t8 -20l111 -111q8 -8 20 -8t21 8l53 53
q20 -11 39 -19l9 -4l4 -1q20 -9 42 -14v-76q0 -12 8.5 -20.5t20.5 -8.5h156q12 0 20.5 8.5t8.5 20.5v76q21 5 44 14l10 5q21 8 40 19l53 -53q9 -8 21 -8t20 8l111 111q8 8 8 20t-8 21l-53 53q11 19 20 42l2 4l2 6q9 20 14 42h76q12 0 20.5 8.5t8.5 20.5v156q0 12 -8.5 20.5
t-20.5 8.5zM965 228h-95l-3 -13q-6 -25 -17 -50l-1 -5l-3 -5q-10 -24 -23 -46l-7 -11l63 -78l-87 -87l-78 63l-11 -7q-22 -13 -48 -24l-4 -2l-5 -2q-24 -10 -49 -16l-20 -4v-94h-130v94l-20 4q-25 6 -52 17l-4 2l-4 2q-24 10 -46 23l-11 7l-57 -63l-108 108l63 57l-6 11
q-14 22 -25 48l-2 3l-2 6q-10 24 -16 49l-3 13h-95v144h95l3 13q6 25 17 51l1 3l3 6q10 24 24 46l6 11l-67 68l101 101l68 -67l11 7q22 13 47 24l5 2l5 2q24 9 49 16l13 3v95h144v-95l13 -3q25 -6 51 -17l4 -1l5 -3q24 -10 46 -23l11 -7l68 67l101 -101l-67 -68l7 -11
q13 -22 24 -48l4 -9q10 -24 16 -49l3 -13h95v-144v0zM512 516q-89 0 -152.5 -63.5t-63.5 -152.5t63.5 -152.5t152.5 -63.5t152.5 63.5t63.5 152.5t-63.5 152.5t-152.5 63.5zM512 127q-71 0 -122 51t-51 122t51 122t122 51t122 -51t51 -122t-51 -122t-122 -51z" />
    <glyph glyph-name="icon-setting-full" unicode="&#xe611;" 
d="M979 491h-76q-5 22 -14 44l-5 10q-8 21 -19 40l53 53q9 9 9 21t-9 20l-111 111q-8 8 -20 8t-21 -8l-53 -53q-19 11 -42 20l-10 4q-20 9 -42 14v76q0 12 -8.5 20.5t-20.5 8.5h-156q-12 0 -20.5 -8.5t-8.5 -20.5v-75q-22 -6 -42 -14l-12 -6q-21 -8 -40 -19l-53 53
q-9 8 -21 8t-20 -8l-111 -111q-8 -8 -8 -20t8 -21l53 -53q-11 -19 -21 -42l-3 -10q-9 -20 -14 -42h-76q-12 0 -20.5 -8.5t-8.5 -20.5v-156q0 -12 8.5 -20.5t20.5 -8.5h75q6 -22 15 -44l5 -10q8 -21 19 -40l-53 -53q-8 -9 -8 -21t8 -20l111 -111q8 -8 20 -8t21 8l53 53
q20 -11 39 -19l9 -4l4 -1q20 -9 42 -14v-76q0 -12 8.5 -20.5t20.5 -8.5h156q12 0 20.5 8.5t8.5 20.5v76q21 5 44 14l10 5q21 8 40 19l53 -53q9 -8 21 -8t20 8l111 111q8 8 8 20t-8 21l-53 53q11 19 20 42l2 4l2 6q9 20 14 42h76q12 0 20.5 8.5t8.5 20.5v156q0 12 -8.5 20.5
t-20.5 8.5zM512 168q-89 0 -152.5 63.5t-63.5 152.5t63.5 152.5t152.5 63.5t152.5 -63.5t63.5 -152.5t-63.5 -152.5t-152.5 -63.5zM512 557q-71 0 -122 -51t-51 -122t51 -122t122 -51t122 51t51 122t-51 122t-122 51z" />
    <glyph glyph-name="shuchuchengguobaobiao" unicode="&#xe6d0;" 
d="M788 210v-241h-104v138h-69v-138h-103v173h-69v-173h-103v138h-69v-138h-69v276h-34v-310h34h69h69h103h69h103h69h104h68v34v241h-68zM508 404q-38 -45 -71 -104h488v-413h-826v413h172v104h-207v-551h896v551h-452zM788 335h-35v34h35v-34zM891 335h-35v34h35v-34z
M856 585l-172 163v-109q-58 2 -113 -11.5t-106.5 -45.5t-88 -80.5t-56.5 -123.5t-15 -168q9 55 28 100.5t43 76.5t52.5 56t58 39.5t58 24.5t53.5 14t44.5 5.5t30.5 1.5t11 -1v-102z" />
    <glyph glyph-name="f-minus" unicode="&#xe862;" 
d="M143 753v-738h738v738h-738zM828 68h-632v632h632v-632zM275 410h474v-52h-474v52zM538 -190v-474h-52v474h52z" />
    <glyph glyph-name="xiezuo" unicode="&#xe612;" 
d="M711 -47h-1h1zM739 -13l-202 115q49 39 74 104t25 121v131q0 42 -37.5 86.5t-96 73.5t-114.5 29q-55 0 -108 -31.5t-84 -77.5t-31 -89v-124q0 -52 27 -120.5t77 -108.5l-201 -109q-6 -3 -14.5 -7.5t-23 -18t-14.5 -26.5v-79q0 -21 15.5 -36.5t36.5 -15.5h671
q21 0 33.5 14t12.5 36v74q0 14 -11.5 28.5t-23.5 22.5zM735 -146h-669v49q1 1 13 13.5t14.5 14t4.5 2.5l200 108q29 16 32 49q2 14 -11.5 31t-29.5 30q-64 52 -75 174v124q0 17 15.5 42t38.5 49t56 41t64 17q43 0 90.5 -21.5t77.5 -51t30 -51.5v-149q0 -43 -18.5 -94
t-55.5 -80q-13 -10 -22.5 -28t-7.5 -33q1 -14 7.5 -22t22.5 -16l198 -99h1q14 -14 20 -26.5t3.5 -16.5t0.5 -7v-49v0zM956 141l-198 108q49 40 75 105t26 120v124q0 67 -69.5 131.5t-153.5 66.5q-63 1 -125 -28t-98 -71q12 -1 35 0t39 0q25 19 70.5 34t78.5 15
q32 0 64.5 -16.5t56 -40.5t38.5 -49t15 -42v-124q0 -43 -19 -94t-56 -80q-41 -33 -39 -56t39 -43q176 -98 223 -124v-50h-173q34 -13 49 -49h124q22 0 36 14t14 35v62q0 14 -13 27t-26 19z" />
    <glyph glyph-name="arrow-down" unicode="&#xe614;" 
d="M16 587l90 90l406 -406l406 406l90 -90l-496 -496z" />
    <glyph glyph-name="arrow-up" unicode="&#xe615;" 
d="M512 677v0v0l496 -496l-90 -90l-406 406l-406 -406l-90 90z" />
    <glyph glyph-name="mail" unicode="&#xe616;" 
d="M1008 23q0 -13 -16 -29t-29 -16h-902q-13 0 -29 16t-16 29q1 588 0 722q0 13 15.5 29t29.5 16h902q13 0 28.5 -18t16.5 -36v0v-713zM61 68q-1 -21 12 -33t33 -12q24 -2 413.5 -1t398.5 1q20 1 32.5 16.5t12.5 28.5v654l-427 -389l-0.5 -1t-1.5 -1q-9 -10 -22 -9
q-13 -1 -22 9q-1 0 -1.5 1l-0.5 1l-427 389v-654zM512 384l406 361h-812z" />
    <glyph glyph-name="icon-message2" 
d="M512 801q-135 0 -249 -53.5t-180.5 -146t-66.5 -201.5q0 -72 31.5 -141t87.5 -122l-51 -170l204 68q106 -46 224 -46q134 0 248.5 55t181 148.5t66.5 202.5t-66.5 202.5t-181 148.5t-248.5 55zM512 35q-82 0 -160 23l-60 24l-163 -70l57 134q-59 49 -92 113.5t-33 135.5
q0 69 35.5 135t95 115.5t144 80t176.5 30.5q124 0 228 -48.5t163.5 -131.5t59.5 -181t-59.5 -181t-163.5 -131t-228 -48z" />
    <glyph glyph-name="dayinji1" unicode="&#xe6ee;" horiz-adv-x="1105" 
d="M1051 710h-171v186h-655v-186h-171q-22 0 -38 -16t-16 -38v-457h225v-78l249 -249h406v325h225v459q0 22 -16 38t-38 16v0v0zM288 833h529v-123h-529v123v0v0zM943 285h-63v125h-63v-475h-260q-19 0 -32 13t-19 31.5t-7.5 44t-0.5 46.5t4 44t4 31.5t2 12.5v0
q-4 -1 -12 -2.5t-30.5 -5t-43 -5t-46 -0.5t-44 7t-31 19.5t-13.5 33.5v205h-63v-123h-63v213h781v-215v0v0zM988 578q-18 0 -30.5 12.5t-12.5 30.5t12.5 30.5t30.5 12.5t30.5 -12.5t12.5 -30.5t-12.5 -30.5t-30.5 -12.5v0v0zM742 401h-364v-63h364v63v0v0zM378 213h364v64
h-364v-64v0v0zM378 213z" />
    <glyph glyph-name="zhongmingming" unicode="&#xe618;" 
d="M949 833q-51 48 -110 48q-67 0 -120 -52q-8 -8 -161 -161.5t-302 -303l-149 -149.5q-6 -7 -8 -15q-14 -49 -82 -272q-5 -19 8 -32q10 -9 22 -9q5 0 10 1q196 65 267 86q7 2 13 7q571 567 615 612q57 60 56 122t-59 118zM285 152q-40 41 -90 61q355 356 514 517
q48 -12 91 -55q41 -42 51 -94q-137 -136 -512 -509q-20 45 -54 80zM153 161q47 -13 88 -54q33 -33 47 -78q-20 -6 -93 -31t-104 -35q8 29 31 101t31 97zM907 638l-1.5 -1.5l-2 -2l-2.5 -2.5q-19 50 -57 88q-38 39 -85 59l4 5q35 34 76 34q34 0 67 -31q39 -38 39 -73
q1 -36 -38 -76z" />
    <glyph glyph-name="2fengongsi" unicode="&#xe669;" 
d="M704 -128h-64h-320h-64h-256v704h256v256h192v64h64v-64h192v-384h256v-576h-256v0v0zM256 512h-192v-576h64v128h64v-128h64v576v0v0zM640 448v320h-320v-192v-640h96v128h128v-128h96v512v0v0zM896 384h-192v-448h64v128h64v-128h64v448v0v0zM768 192h64v-64h-64v64v0
v0zM768 320h64v-64h-64v64v0v0zM416 192h128v-64h-128v64v0v0zM416 320h128v-64h-128v64v0v0zM416 448h128v-64h-128v64v0v0zM416 576h128v-64h-128v64v0v0zM416 704h128v-64h-128v64v0v0zM128 192h64v-64h-64v64v0v0zM128 320h64v-64h-64v64v0v0zM128 448h64v-64h-64v64v0
v0zM128 448z" />
    <glyph glyph-name="dingdan-80" unicode="&#xe6af;" 
d="M781 752h-49q-11 0 -20 -6t-9 -16t9.5 -18.5t19.5 -8.5h49q22 0 36 -13.5t14 -35.5v-565q0 -22 -14 -36t-36 -14h-528q-24 0 -43 14.5t-19 35.5v565q0 22 13.5 35.5t35.5 13.5h62q19 0 19 27q0 22 -19 22h-62q-49 0 -73.5 -27t-24.5 -72v-559q0 -47 27 -75.5t76 -28.5
h531q51 0 77.5 26.5t26.5 77.5v559q0 44 -26 71.5t-73 27.5v0zM302 531q0 -11 7.5 -18.5t17.5 -7.5h369q10 0 17.5 7.5t7.5 18t-7.5 18t-17.5 7.5h-369q-10 0 -17.5 -7.5t-7.5 -17.5v0zM695 420h-368q-10 0 -17.5 -7.5t-7.5 -17.5t7.5 -17.5t17.5 -7.5h369q10 0 17.5 7.5
t7.5 17.5q-1 11 -8.5 18t-17.5 7v0zM695 272h-368q-10 0 -17.5 -7t-7.5 -17.5t7.5 -18t17.5 -7.5h369q10 0 17.5 7.5t7.5 17.5q-1 11 -8.5 18t-17.5 7v0zM426 690h172q14 0 25 13t11 30.5t-11 30t-26 12.5h-171q-15 0 -26 -12.5t-11 -30t11 -30.5t26 -13v0zM426 690z" />
    <glyph glyph-name="xiadan" unicode="&#xe6b0;" 
d="M1010 801l-81 81q-14 14 -33.5 14t-33.5 -14l-85 -85l148 -148l85 85q14 14 14 33.5t-14 33.5v0zM752 772l-458 -473l-38 -171l171 38l471 461zM853 384v-400q0 -11 -7 -19t-17 -8h-185.5h-356h-176.5q-10 0 -18 8.5t-8 18.5v715q0 10 8.5 18t20.5 8h398l85 86h-535
q-26 0 -44 -18t-18 -44v-815q0 -25 18.5 -43.5t43.5 -18.5h815q25 0 43.5 18.5t18.5 43.5v535l-86 -85v0zM853 384z" />
    <glyph glyph-name="dayinji2" unicode="&#xe6ef;" 
d="M833 625h-54v187h-534v-187h-54q-44 0 -75.5 -31.5t-31.5 -75.5v-348h161v-214h534v214h161v348q0 44 -31.5 75.5t-75.5 31.5zM245 464q0 11 7.5 19t18.5 8h241q11 0 19 -8t8 -19t-8 -19t-19 -8h-241q-11 0 -18.5 8t-7.5 19zM726 10h-428v240h428v-240zM726 625h-428v133
h428v-133z" />
    <glyph glyph-name="celiang0" unicode="&#xe6bb;" 
d="M840 643l-583 -583v0l-69 69v0l583 583l93 -93l3.5 3.5t6.5 7.5l4 3q24 24 24 58.5t-24 58.5t-58.5 24t-58.5 -24l-14 -14v0l-214 -214l-276 277l-160 -160l277 -276l-213 -213q-3 -3 -4 -8l-34 -127q-3 -9 4 -16q5 -5 12 -5q2 0 4 1l127 34q5 1 8 4l586 586zM145 639
l112 112l28 -28l-22 -22l24 -24l22 22l26 -27l-38 -39l24 -24l38 39l27 -27l-22 -22l24 -24l22 22l27 -26l-39 -39l24 -24l39 39l27 -27l-22 -22l21 -22l-89 -89zM665 391l-12 -12v0l-34 -34l24 -24l22 22l26 -27l-38 -39l24 -24l38 39l27 -27l-22 -22l24 -24l22 22l27 -27
l-39 -38l24 -24l39 38l27 -26l-22 -22l24 -24l22 22l11 -11l-112 -112l-238 238l-24 -24l262 -262l160 160z" />
    <glyph glyph-name="crmbaobiao" unicode="&#xe6d1;" 
d="M800 704q-40 0 -68 -28t-28 -68q0 -34 22 -61l-99 -165q-9 2 -19 2q-22 0 -41 -9l-64 64q9 19 9 41q0 40 -28 68t-68 28t-68 -28t-28 -68q0 -34 22 -61l-99 -165q-9 2 -19 2q-40 0 -68 -28t-28 -68t28 -68t68 -28t68 28t28 68q0 34 -22 61l99 165q9 -2 19 -2q22 0 41 9
l64 -64q-9 -19 -9 -41q0 -40 28 -68t68 -28t68 28t28 68q0 34 -22 61l99 165q9 -2 19 -2q40 0 68 28t28 68t-28 68t-68 28zM224 128q-13 0 -22.5 9.5t-9.5 22.5t9.5 22.5t22.5 9.5t22.5 -9.5t9.5 -22.5t-9.5 -22.5t-22.5 -9.5zM384 480q0 13 9.5 22.5t22.5 9.5t22.5 -9.5
t9.5 -22.5t-9.5 -22.5t-22.5 -9.5t-22.5 9.5t-9.5 22.5zM608 256q-13 0 -22.5 9.5t-9.5 22.5t9.5 22.5t22.5 9.5t22.5 -9.5t9.5 -22.5t-9.5 -22.5t-22.5 -9.5zM800 576q-13 0 -22.5 9.5t-9.5 22.5t9.5 22.5t22.5 9.5t22.5 -9.5t9.5 -22.5t-9.5 -22.5t-22.5 -9.5zM916 832
h-808q-45 0 -76.5 -31.5t-31.5 -76.5v-677q0 -45 31.5 -76.5t76.5 -31.5h808q45 0 76.5 31.5t31.5 76.5v677q0 45 -31.5 76.5t-76.5 31.5zM960 47q0 -18 -13 -31t-31 -13h-808q-18 0 -31 13t-13 31v677q0 18 13 31t31 13h808q18 0 31 -13t13 -31v-677v0z" />
    <glyph glyph-name="jiaoduceliang" unicode="&#xe6bc;" 
d="M924 118q-36 0 -52 -32h-374q14 52 3 101q-11 51 -47 95q-28 36 -67 63l274 307q9 -2 18 -2q24 0 41 17t17 41t-17 41t-41.5 17t-41.5 -17t-17 -41q0 -11 4 -21l-510 -570q-7 1 -14 1q-24 0 -41 -17t-17 -41t17 -41t41 -17q36 0 52 33h720q16 -33 52 -33q24 0 41 17
t17 41t-17 41t-41 17zM438 270q68 -85 39 -184h-322l218 243q38 -26 65 -59zM678.5 735q11.5 0 19.5 -8t8 -19.5t-8 -19.5t-19.5 -8t-19.5 8t-8 19.5t8 19.5t19.5 8zM100 33q-11 0 -19.5 8t-8.5 19.5t8.5 19.5t19.5 8t19 -8t8 -19.5t-8 -19.5t-19 -8zM924 33q-11 0 -19 8
t-8 19.5t8 19.5t19 8t19.5 -8t8.5 -19.5t-8.5 -19.5t-19.5 -8z" />
    <glyph glyph-name="lock2" unicode="&#xe619;" 
d="M834 411v0v134v1v2v1q0 94 -43.5 174t-117.5 126.5t-161 46.5q-88 0 -162 -47t-117 -127.5t-43 -175.5v-135q-41 0 -70.5 -31.5t-29.5 -76.5v-323q0 -45 29.5 -76.5t70.5 -31.5h645q41 0 70 31.5t29 76.5v323q0 45 -29.5 76.5t-70.5 31.5zM239 546q0 122 80 209t193 87
t193 -87t80 -209v-2v-133h-546v135zM884 -20q0 -22 -14.5 -38t-35.5 -16h-645q-20 0 -34.5 15.5t-14.5 38.5v323q0 22 14.5 38t34.5 16h645q21 0 35.5 -16t14.5 -38v-323zM512 249q-21 0 -35.5 -15.5t-14.5 -38.5q0 -30 25 -45v-89q0 -12 7.5 -19.5t17.5 -7.5t17.5 7.5
t7.5 19.5v89q24 16 24 45q0 23 -14 38.5t-35 15.5z" />
    <glyph glyph-name="lock3" unicode="&#xe61a;" 
d="M835 -128h-645q-41 0 -70.5 31.5t-29.5 76.5v323q0 45 29.5 76.5t70.5 31.5v135q0 95 43 175.5t117.5 127.5t161.5 47t161.5 -47t118 -127.5t43.5 -175.5q0 -11 -7.5 -19t-18 -8t-17.5 7.5t-7 19.5q0 122 -80 209t-193 87t-193 -87t-80 -209v-135h595q41 0 70.5 -31.5
t29.5 -76.5v-323q0 -45 -29 -76.5t-70 -31.5zM884 303q0 22 -14.5 38t-34.5 16h-645q-21 0 -35.5 -16t-14.5 -38v-323q0 -22 14.5 -38t35.5 -16h645q20 0 34.5 16t14.5 38v323zM537 150v-89q0 -11 -7.5 -19t-17.5 -8t-17.5 8t-7.5 19v89q-25 16 -25 45q0 23 14.5 38.5
t35.5 15.5t35.5 -15.5t14.5 -38.5q0 -29 -25 -45z" />
    <glyph glyph-name="dingdanbaobiao" unicode="&#xe6d2;" 
d="M472 170h-352q-23 0 -39.5 16.5t-16.5 39.5v550q0 23 16.5 39.5t39.5 16.5h656q23 0 39.5 -16.5t16.5 -39.5v-289q0 -14 9.5 -23t22.5 -9t22.5 9t9.5 23v289q0 50 -35 85t-85 35h-656q-50 0 -85 -35t-35 -85v-550q0 -49 35 -84t85 -35h352q13 0 22.5 9t9.5 22.5
t-9.5 22.5t-22.5 9zM735 480q13 0 22.5 9.5t9.5 22.5v257h-257q-13 0 -22.5 -9.5t-9.5 -22.5t9.5 -22.5t22.5 -9.5h147l-203 -202l-114 118q-10 9 -23 9t-23 -9l-197 -197q-10 -10 -10 -23t9.5 -22.5t23 -9.5t22.5 9l174 175l115 -118q9 -9 22.5 -9.5t22.5 9.5l227 225v-148
q0 -13 9.5 -22.5t22.5 -9.5zM1010 238l-131 132q-14 14 -35 14h-214q-22 0 -38 -16t-16 -38v-402q0 -22 16 -38t38 -16h340q22 0 38 16t16 38v276q0 20 -14 34zM960 -62h-320v382h198l122 -122v-260zM692 192h92q13 0 22.5 9.5t9.5 22.5t-9.5 22.5t-22.5 9.5h-92
q-14 0 -23 -9.5t-9 -22.5t9 -22.5t23 -9.5zM660 128q0 -13 9 -22.5t23 -9.5h207q13 0 22.5 9.5t9.5 22.5t-9.5 22.5t-22.5 9.5h-207q-14 0 -23 -9.5t-9 -22.5zM899 64h-207q-14 0 -23 -9.5t-9 -22.5t9 -22.5t23 -9.5h207q13 0 22.5 9.5t9.5 22.5t-9.5 22.5t-22.5 9.5z" />
    <glyph glyph-name="xiangshangsanjiao" unicode="&#xe68f;" 
d="M512 638l-444 -479h889l-445 479v0z" />
    <glyph glyph-name="mianceliang" unicode="&#xe6be;" 
d="M960 704h-320v128h-288v-128h-288v-608h288v-160h288v160h320v608zM416 768h192v-64h-64h-128v64zM608 608h-96v-32h96v-64h-64v-32h64v-64h-128v-32h128v-64h-64v-32h64v-64h-96v-32h96v-64h-64h-128v544h128h64v-64zM96 128v544h256v-544h-256zM608 0h-192v96h128h64
v-96zM928 128h-288v544h288v-544z" />
    <glyph glyph-name="tongjifenxi2" unicode="&#xe61b;" 
d="M98 814h-34v-860h896v33l-861 1zM546 780q0 14 -10 24t-24 10h-103q-15 0 -25 -10t-10 -24v-723h172v723zM340 573q0 15 -10 25t-25 10h-103q-14 0 -24 -10t-10 -25v-516h172v516zM753 367q0 14 -10 24t-24 10h-104q-14 0 -24 -10t-10 -24v-310h172v310zM925 195h-103
q-14 0 -24 -10.5t-10 -24.5v-103h172v103q0 14 -10 24.5t-25 10.5z" />
    <glyph glyph-name="xianceliang" unicode="&#xe6bf;" 
d="M640 512v320h-288v-320h-288v-32h288v-544h288v544h320v32h-320zM608 416h-128v-32h128v-64h-64v-32h64v-64h-96v-32h96v-64h-64v-32h64v-96h-192v480h128h64v-64zM608 704h-64v-32h64v-64h-96v-32h96v-64h-64h-128v256h192v-64z" />
    <glyph glyph-name="yixuan" unicode="&#xe6b9;" 
d="M465 133q-18 0 -31 13l-181 181q-13 13 -13 31.5t13 31t31 12.5t31 -12l150 -150l384 383q13 13 31 13t31 -13t13 -31t-13 -31l-415 -415q-13 -13 -31 -13v0v0zM512 -86q-95 0 -182 37.5t-150 100.5t-100.5 150t-37.5 182t37.5 182t100.5 150t150 100.5t182 37.5
q141 0 259 -78q11 -7 14 -21t-5 -25.5t-21.5 -14t-25.5 4.5q-100 67 -221 67q-109 0 -202 -54t-147 -147t-54 -202t54 -202t147 -147t202 -54t202 54t147 147t54 202q0 23 -3 42q-1 14 8 24.5t22.5 12t24.5 -7t12 -22.5q3 -24 3 -49q0 -95 -37.5 -182t-100.5 -150
t-150 -100.5t-182 -37.5v0v0z" />
    <glyph glyph-name="delete" unicode="&#xe61c;" 
d="M984 673h-86v-716q0 -26 -15 -40.5t-40 -14.5h-677q-24 0 -32 13t-8 42v716h-82q-14 0 -20.5 6t-7.5 22q-1 13 7 20t21 7h303v83q0 33 11 44t44 11h220q32 0 43.5 -11.5t11.5 -43.5v-83h303q13 0 20.5 -7.5t7.5 -19.5q0 -28 -24 -28zM622 811h-220v-83h220v83zM843 673
h-662v-686q0 -13 9.5 -21.5t22.5 -8.5h598q13 0 22.5 8.5t9.5 21.5v686zM677 480h55v-385h-55v385zM484 536h56v-441h-56v441zM292 480h55v-385h-55v385z" />
    <glyph glyph-name="time" unicode="&#xe61d;" 
d="M512 880q-205 0 -350.5 -145.5t-145.5 -350.5t145.5 -350.5t350.5 -145.5t350.5 145.5t145.5 350.5t-145.5 350.5t-350.5 145.5zM512 -62q-91 0 -173.5 35.5t-142.5 95.5t-95 142.5t-35 173t35 173t95 142.5t142.5 95t173.5 35t173.5 -35t142.5 -95t95 -142.5t35 -173
t-35 -173t-95 -142.5t-142.5 -95.5t-173.5 -35.5zM683 384h-171v269q0 12 -7.5 20.5t-17.5 8.5t-17.5 -8.5t-7.5 -20.5v-290l0.5 -1l0.5 -1l-0.5 -0.5t-0.5 -1.5q0 -11 10 -19q7 -6 15 -6l0.5 0.5t1 0.5t1 -0.5l0.5 -0.5h193q11 0 19 7.5t8 17.5t-8 17.5t-19 7.5z" />
    <glyph glyph-name="cooperation" unicode="&#xe61e;" 
d="M739 71l-199 120q82 65 82 221v137q0 65 -66.5 115t-153 50t-153.5 -50t-67 -115v-137q0 -155 82 -221l-195 -120l-6 -3t-14 -9t-17.5 -15t-12 -20.5t-2.5 -25.5v-57q0 -22 15 -37.5t37 -15.5h670q21 0 35 16.5t14 38.5v55q0 16 -5.5 29t-12 20.5t-14.5 14t-11.5 8
t-5.5 1.5v0zM733 -57h-661v55q24 17 79 51t98 60.5l43 26.5q14 8 20.5 20t7.5 35q-1 5 -1 11.5t-0.5 8.5t-1.5 5.5t-4 7t-7.5 8t-13.5 12.5q-31 27 -43 74t-12 94v137q0 36 53 75t115 39q64 0 113 -38.5t49 -75.5v-137q0 -25 -1 -42t-6 -42t-17 -46t-31 -36
q-16 -16 -21 -25.5t-6 -29.5v-14.5t1 -14t7.5 -13.5t18.5 -13q179 -103 221 -138v-55v0zM956 225l-196 104q88 69 83 248v110q0 67 -68.5 130t-152.5 63q-55 0 -109 -24t-83 -59q18 -4 28 -9.5t27 -17.5q27 21 66.5 38t70.5 17q62 0 114 -49.5t52 -88.5v-110
q2 -71 -8.5 -117.5t-46.5 -75.5q-31 -24 -28 -55q0 -3 0.5 -11.5t1 -12.5t3 -10t8.5 -11t15 -10q179 -92 220 -110v-55h-138q4 -3 7 -6t5.5 -7t4 -6.5t3.5 -7.5t2.5 -7.5t2.5 -10t3 -10.5h110q23 0 39 10.5t16 31.5v77q0 14 -13 27t-26 19z" />
    <glyph glyph-name="move-copy" unicode="&#xe61f;" 
d="M924 -112h-634q-20 0 -31 11t-11 31l2 96h-138q-55 -1 -55 40v772q0 20 11.5 31t31.5 11h634q40 0 40 -55v-110h138q31 0 43 -11.5t12 -43.5v-730q0 -20 -11.5 -31t-31.5 -11zM719 804q0 21 -22 21h-563q-22 0 -22 -21v-702q0 -21 22 -21h563q22 0 22 21v702zM912 632
q0 13 -8.5 20.5t-19.5 7.5h-110v-579q-1 -30 -12.5 -42.5t-42.5 -12.5h-414v-55q0 -10 9 -19t19 -9h551q10 0 19 9t9 19v661zM223 301h385v-55h-385v55zM223 494h385v-55h-385v55zM223 687h385v-55h-385v55z" />
    <glyph glyph-name="baogao" unicode="&#xe6b3;" 
d="M391 597h242q31 0 53 22t22 53v4v7q-3 26 -21 44.5t-44 22.5q-5 1 -10 1h-32v6q0 31 -22 53t-53 22h-28q-31 0 -53 -22t-22 -53v-6h-32q-5 0 -10 -1q-26 -4 -44 -22.5t-21 -44.5v-7v-4q0 -31 22 -53t53 -22zM831 770h-110v-40h110q6 0 10 -4t4 -9v-731q0 -5 -4 -9t-10 -4
h-638q-6 0 -10 4t-4 10v730q0 5 4 9t10 4h110v40h-110q-22 0 -38 -15.5t-16 -37.5v-730q0 -22 16 -38t38 -16h638q22 0 38 16t16 38v730q0 22 -16 37.5t-38 15.5zM332 429h360q17 0 28.5 11.5t11.5 28.5t-11.5 28.5t-28.5 11.5h-360q-17 0 -28.5 -11.5t-11.5 -28.5
t11.5 -28.5t28.5 -11.5zM692 342h-360q-17 0 -28.5 -11.5t-11.5 -28.5t11.5 -28.5t28.5 -11.5h360q17 0 28.5 11.5t11.5 28.5t-11.5 28.5t-28.5 11.5zM692 175h-360q-17 0 -28.5 -11.5t-11.5 -28.5t11.5 -28.5t28.5 -11.5h360q17 0 28.5 11.5t11.5 28.5t-11.5 28.5
t-28.5 11.5z" />
    <glyph glyph-name="1370zhishidian" unicode="&#xe6f4;" 
d="M958 8v754q0 29 -19 50q-20 20 -54 20h-747q-44 0 -63 -35q-9 -17 -10 -34v0v-755q0 -18 9 -34q19 -35 64 -35h747q35 0 54.5 20t18.5 49zM586 801h142v-219l-72 67l-70 -67v219zM267 -31h-129q-26 0 -36 18q-6 10 -6 21v754q1 10 6 20q10 19 36 19h129v-832z
M917.5 -19.5q-10.5 -11.5 -32.5 -11.5h-587v831h257v-289l102 96l102 -96v290h126q21 0 31.5 -10.5t10.5 -27.5v-755v-1q1 -15 -9.5 -26.5z" />
    <glyph glyph-name="buchongiconsvg14" unicode="&#xe6d3;" horiz-adv-x="1025" 
d="M889 755h-351v39q0 10 -7.5 17.5t-18.5 7.5t-18.5 -7.5t-7.5 -17.5v-39h-351q-24 0 -41 -17t-17 -41v-478q0 -24 17 -41t41 -17h351v-29l-158 -120q-9 -7 -10.5 -17.5t5 -19t17 -10t18.5 5.5l128 97v-37q0 -11 7.5 -18.5t18.5 -7.5t18.5 7.5t7.5 18.5v37l128 -97
q6 -5 15 -5q13 0 20 10q7 8 5.5 18.5t-10.5 17.5l-158 120v29h351q24 0 41 17t17 41v478q0 24 -17 41t-41 17zM896 219q0 -7 -7 -7h-754q-7 0 -7 7v478q0 7 7 7h754q7 0 7 -7v-478zM782 551l-187 -151l-197 134q-16 11 -31 -3l-158 -141q-8 -7 -8.5 -17.5t6.5 -18.5t18 -8.5
t18 6.5l143 128l196 -133q7 -5 15 -5q9 0 16 6l201 163q8 6 9 17t-5.5 19t-17 9t-18.5 -5z" />
    <glyph glyph-name="tongjifenxi-copy" unicode="&#xe620;" 
d="M815 695q44 1 76 -29t36 -73q3 -44 -24 -78.5t-71 -41.5q-20 -3 -40 1q-6 2 -9 -4q-86 -148 -124 -214q-2 -3 -2 -4.5t0.5 -2.5t3 -2.5l2.5 -1.5q44 -35 37 -89q-7 -57 -61 -77q-29 -11 -58 -3t-48.5 31.5t-22 53.5t13.5 56q4 8 -3 13q-71 53 -174 130q-7 6 -14 2
q-21 -10 -42 -7q-8 2 -12 -6q-29 -51 -52 -90q-5 -8 1 -15q29 -38 7 -81q-10 -19 -30.5 -29.5t-41.5 -7.5q-48 6 -63 51q-12 39 15.5 70t67.5 24q8 -2 12 5q29 51 50 87q5 8 -2 14q-20 18 -25.5 44t5 50.5t33.5 38.5t50 12q26 -2 46 -18.5t28 -42.5q10 -34 -9 -65
q-3 -6 3 -11q80 -60 176 -131q5 -4 11 -1q24 13 52 11q8 -1 13 7q65 113 122 211q5 9 -2 14q-28 22 -38 56.5t2 67.5q11 34 40 54.5t65 20.5z" />
    <glyph glyph-name="edit" unicode="&#xe621;" 
d="M958 483h-80q-12 43 -34 80l58 58q19 20 19 47.5t-19 46.5l-47 47q-19 20 -47 20t-47 -20l-59 -59q-34 19 -75 31v80q0 27 -19.5 46.5t-46.5 19.5h-66q-27 0 -46.5 -19.5t-19.5 -46.5v-80q-42 -12 -78 -32l-60 60q-20 20 -47.5 20t-46.5 -20l-47 -47q-20 -19 -20 -46.5
t20 -47.5l60 -60q-20 -36 -32 -78h-80q-27 0 -46.5 -19.5t-19.5 -46.5v-66q0 -27 19.5 -46.5t46.5 -19.5h80q12 -41 31 -75l-59 -59q-20 -19 -20 -47t20 -47l47 -47q19 -19 46.5 -19t47.5 19l58 58q38 -22 80 -34v-80q0 -27 19.5 -46.5t46.5 -19.5h66q27 0 46.5 19.5
t19.5 46.5v80q41 12 78 32l56 -56q19 -19 46.5 -19t47.5 19l47 47q19 19 19 47t-19 47l-56 56q20 36 32 78h80q27 0 46.5 19.5t19.5 46.5v66q0 27 -19.5 46.5t-46.5 19.5zM528 186q-82 0 -140 58t-58 140t58 140t140 58t140 -58t58 -140t-58 -140t-140 -58z" />
    <glyph glyph-name="rename2" unicode="&#xe622;" 
d="M16 -112v211l210 -211h-210zM297 -39l-208 209l531 546l231 -202zM913 574l-224 215l95 91l224 -217z" />
    <glyph glyph-name="rename" unicode="&#xe623;" 
d="M949 833q-51 48 -110 48q-67 0 -120 -52q-8 -8 -161 -161.5t-302 -303l-149 -149.5q-6 -7 -8 -15q-24 -88 -82 -272q-5 -19 8 -32q10 -9 22 -9q5 0 10 1q196 65 267 86q7 2 13 7q563 558 615 612q57 60 56 122t-59 118zM64 -64q9 30 36.5 117t34.5 112l7 7q6 -13 20 -15
q41 -6 81 -46q16 -16 26.5 -36t12.5 -28.5t3 -12.5q1 -10 8 -17l-6 -6q-20 -6 -104.5 -35t-118.5 -40zM332 56q-14 52 -53 92q-46 47 -102 59q415 417 536 539q6 -15 21 -17q41 -6 81 -46q16 -16 26.5 -36t12.5 -29t3 -12q1 -11 11 -18q-125 -125 -536 -532zM917 638
q-3 -3 -12 -13q-14 54 -54 95q-48 48 -104 59l7 7l6 6t2 3q37 37 82 37q37 0 72 -34q42 -40 43 -78q0 -39 -42 -82z" />
    <glyph glyph-name="xinfang" unicode="&#xe6fd;" 
d="M881 22h-41v202q0 5 -3.5 9t-9.5 4h-188q-6 0 -10 -4t-4 -9v-202h-27v538q0 5 -3.5 9t-9.5 4h-202v81h377v-161h-14q-5 0 -9 -4t-4 -10v-54q0 -5 4 -9t9 -4h14v-27q11 0 19 -8t8 -19t-8 -19t-19 -8t-19 8t-8 19h-27q0 -22 16 -38t38 -16t38 16t16 38q0 31 -27 47v7h13
q6 0 10 4t4 9v54q0 6 -4 10t-10 4h-13v161h94l27 54l-27 27h-498v53q0 6 -4 10t-9 4h-108q-5 0 -9 -4t-4 -10v-53h-27v13q0 6 -4 10t-10 4h-80q-6 0 -10 -4t-4 -10v-134q0 -6 4 -10t10 -4h80q6 0 10 4t4 10v40h27v-81h-41q-5 0 -9 -4t-4 -9v-538h-67q-6 0 -10 -4t-4 -10v-26
q0 -6 4 -10t10 -4h753q5 0 9 4t4 10v26q0 6 -4 10t-9 4zM545 318q0 -6 -4 -10t-10 -4h-54q-5 0 -9 4t-4 10v54q0 5 4 9t9 4h54q6 0 10 -4t4 -9v-54zM545 452q0 -5 -4 -9t-10 -4h-54q-5 0 -9 4t-4 9v54q0 6 4 9.5t9 3.5h54q6 0 10 -3.5t4 -9.5v-54z" />
    <glyph glyph-name="fuxuankuangweixuanze" unicode="&#xe67b;" 
d="M896 896h-768q-53 0 -90.5 -37.5t-37.5 -90.5v-768q0 -53 37.5 -90.5t90.5 -37.5h768q53 0 90.5 37.5t37.5 90.5v768q0 53 -37.5 90.5t-90.5 37.5zM973 0q0 -32 -22.5 -54.5t-54.5 -22.5h-768q-32 0 -54.5 22.5t-22.5 54.5v768q0 32 22.5 54.5t54.5 22.5h768
q32 0 54.5 -22.5t22.5 -54.5v-768z" />
    <glyph glyph-name="62" unicode="&#xe6ac;" 
d="M450 242h-25v-52h25v52zM450 320h-25v-52h25v52zM579 139h-25v-27h51v52h-26v-25zM502 603h26v26h-26v-26zM502 112h26v26h-26v-26zM450 397h-25v-52h25v52zM450 164h-25v-52h51v27h-26v25zM425 577h25v26h26v27h-51v-53zM216 112h182v517h-182v-517zM657 397h-26v-52h26
v52zM657 552h-26v-52h26v52zM657 475h-26v-52h26v52zM786 577h26v53h-52v-27h26v-26zM657 320h-26v-52h26v52zM450 552h-25v-52h25v52zM450 475h-25v-52h25v52zM579 577h26v53h-51v-27h25v-26zM708 603h26v26h-26v-26zM786 345h26v52h-26v-52zM786 268h26v52h-26v-52z
M579 190h26v52h-26v-52zM786 139h-26v-27h52v52h-26v-25zM786 552v-52h26v52h-26zM511 887q-102 0 -195 -40t-160 -107t-106.5 -160t-39.5 -195t39.5 -195t106.5 -160t160 -107t195 -40t195 40t160 107t107 160t40 195t-40 195t-107 160t-160 107t-195 40zM513.5 -35
q-114.5 0 -212 56t-154 153.5t-56.5 212t56.5 212t154 154t212 56.5t211.5 -56.5t153.5 -154t56.5 -212t-56.5 -212t-153.5 -153.5t-211.5 -56zM786 423h26v52h-26v-52zM708 112h26v26h-26v-26zM786 190h26v52h-26v-52zM579 423h26v52h-26v-52zM579 345h26v52h-26v-52z
M631 577h26v26h25v27h-51v-53zM579 268h26v52h-26v-52zM657 164h-26v-52h51v27h-25v25zM579 500h26v52h-26v-52zM657 242h-26v-52h26v52z" />
    <glyph glyph-name="tongjifenxi3" unicode="&#xe6d4;" 
d="M319 621h213q7 0 12.5 5.5t5.5 13t-5.5 13t-12.5 5.5h-213q-8 0 -13.5 -5.5t-5.5 -13t5.5 -13t13.5 -5.5zM319 549h213q7 0 12.5 5t5.5 12.5t-5.5 13t-12.5 5.5h-213q-8 0 -13.5 -5.5t-5.5 -13t5.5 -12.5t13.5 -5zM403 492.5q0 7.5 -5.5 13t-12.5 5.5h-66
q-8 0 -13.5 -5.5t-5.5 -13t5.5 -13t13.5 -5.5h66q7 0 12.5 5.5t5.5 13zM408 398l-2 -1q-51 -49 -51 -121q0 -69 51 -121q49 -51 121 -51q69 0 120 51q51 49 51 121q0 69 -51 121q-49 49 -119.5 50t-119.5 -49zM621 178q-40 -39 -96 -39t-95.5 39.5t-39.5 96t39 95.5l2 2
q33 33 76 38v-134q0 -11 11 -17l114 -66q-6 -9 -11 -15zM867 568l-221 220q-9 8 -22 8h-362q-34 0 -57 -23q-25 -25 -25 -58v-629q0 -37 25 -56q24 -25 57 -25h531q34 0 57 23q25 22 25 58v461q0 13 -8 21zM641 704l140 -141v0v-1h-107q-13 0 -23 10l-2 1q-8 11 -8 23v108z
M814 86q0 -8 -6.5 -14.5t-14.5 -6.5h-531q-8 0 -14 6q-7 5 -7 15v629q0 9 7 14q4 6 14 6h342v-139q0 -25 20 -47v-2q23 -20 50 -20h138h2v-441z" />
    <glyph glyph-name="fangyuan" unicode="&#xe6fe;" 
d="M512 384zM525 329zM513 831l-448 -448v-56h23l425 425l424 -425h24v56zM833 304q-53 0 -90.5 -37.5t-37.5 -90.5q0 -45 28 -80t71 -45v-116h57v116q43 10 71.5 45t28.5 80q0 53 -37.5 90.5t-90.5 37.5zM832.5 104q-29.5 0 -50.5 21t-21 50.5t21 51t50.5 21.5t50.5 -21.5
t21 -51t-21 -50.5t-50.5 -21zM648 176q0 74 51.5 127.5t125.5 56.5l-312 312l-336 -335v-23v-379h251v282h169v-282h151v77q-45 23 -72.5 67t-27.5 97z" />
    <glyph glyph-name="nvsheng" unicode="&#xe683;" 
d="M839 208q-18 27 -56 42q35 0 64 3q-19 21 -31 39t-18.5 31.5t-10 36t-4.5 38t-2.5 53.5t-3.5 69q-1 97 -32.5 198.5t-70.5 129.5q-64 48 -173.5 45t-173.5 -55q-24 -20 -45.5 -69t-29.5 -108q-5 -48 -12.5 -85.5t-14.5 -63.5t-18 -46.5t-19 -32.5t-23.5 -24t-25 -17
t-29.5 -16q83 -23 147 15q-13 -31 -32 -49t-47 -35q64 -50 142 -36q-8 -2 -27.5 -6t-29.5 -7t-25 -8t-25.5 -11t-17.5 -14q-34 -34 -53 -85t-23 -103t-2.5 -93t8.5 -72h761q4 27 5.5 68t-2 89t-16.5 97t-34 82zM353 573q2 19 3 28q33 -8 68 -11v32l10 -3l3 -13l5 21l11 -1
l18 -40q106 -4 201 15q6 -48 -4 -96q-14 -65 -53.5 -114t-99.5 -67q-57 9 -95.5 50.5t-55.5 99.5q-13 48 -11 99zM510 -82q-124 157 -175 357q48 13 83 48q42 -32 96 -39l3 -1l5 1q41 12 76 36q30 -35 78 -52q-54 -194 -166 -350z" />
    <glyph glyph-name="triangle-down" unicode="&#xe690;" 
d="M658 672v-648h-602z" />
    <glyph glyph-name="align-right" unicode="&#xe624;" 
d="M329 227l26 -52l183 209l-183 209l-26 -52l109 -131h-422v-52h422zM303 749v-52h705v52h-705zM643 358h365v52h-365v-52zM303 19h705v52h-705v-52z" />
    <glyph glyph-name="icon-indent-left" unicode="&#xe625;" 
d="M695 541l-26 52l-183 -209l183 -209l26 52l-109 131h422v52h-422zM721 19v52h-705v-52h705zM381 410h-365v-52h365v52zM721 749h-705v-52h705v52z" />
    <glyph glyph-name="close" unicode="&#xe626;" 
d="M1008 -51l-445 445l425 425l-41 41l-425 -425l-445 445l-41 -40l446 -446l-466 -466l40 -40l466 466l446 -446z" />
    <glyph glyph-name="bullet2" unicode="&#xe627;" 
d="M342 735v-49h666v49h-666zM342 365h666v49h-666v-49zM342 44h666v50h-666v-50zM79 743v-138h21v177h-14q-5 -11 -18.5 -23t-32.5 -21v-21q10 4 23 11.5t21 14.5zM133 305h-87q4 6 9.5 12t24.5 22q24 20 34 31.5t14 21.5t4 21q0 21 -14.5 35t-40.5 14q-25 0 -40 -13
t-17 -38l22 -2q1 16 10 25.5t25 9.5q15 0 24 -9t9 -22q0 -12 -10 -25.5t-39 -37.5q-18 -15 -28 -26.5t-14 -23.5q-3 -8 -3 -15h117v20zM102 84q12 6 18 15.5t6 20.5q0 12 -6.5 22.5t-18.5 17t-27 6.5q-21 0 -35 -12t-18 -34l22 -4q2 16 10.5 24t21 8t21 -8t8.5 -19
q0 -16 -11.5 -23t-24.5 -7h-4l-2 -19q9 3 15 3q15 0 25 -10t10 -25t-11 -26t-26 -11q-13 0 -22 8.5t-12 26.5l-22 -3q2 -22 17.5 -35.5t38.5 -13.5q26 0 43 16t17 39q0 17 -9 28.5t-24 14.5z" />
    <glyph glyph-name="save" unicode="&#xe628;" 
d="M374.5 53q-11.5 0 -19.5 8l-331 331q-8 8 -8 19.5t8 19.5t19.5 8t19.5 -8l311 -312l587 588q8 8 19.5 8t19.5 -8t8 -19.5t-8 -19.5l-606 -607q-8 -8 -19.5 -8z" />
    <glyph glyph-name="back" unicode="&#xe629;" 
d="M980 356h-870l256 -256q8 -8 8 -19.5t-8 -19.5t-19.5 -8t-19.5 8l-302 302l-0.5 0.5l-1 1t-1 1.5l-0.5 1q-3 5 -5 10q-1 2 -1 4q-2 13 8 23l0.5 0.5l0.5 0.5l302 302q8 8 19.5 8t19.5 -8t8 -19.5t-8 -19.5l-256 -256h870q12 0 20 -8.5t8 -19.5t-8 -19.5t-20 -8.5z" />
    <glyph glyph-name="tian" unicode="&#xe62b;" 
d="M470 430h-305q-36 0 -62 25.5t-26 61.5v194q0 36 26 61.5t62 25.5h217q36 0 62 -25.5t26 -61.5v-281zM554 430h305q36 0 62 25.5t26 61.5v194q0 36 -26 61.5t-62 25.5h-217q-36 0 -62 -25.5t-26 -61.5v-281zM470 343h-305q-36 0 -62 -26t-26 -62v-198q0 -36 26 -61.5
t62 -25.5h217q36 0 62 25.5t26 61.5v286zM554 343h305q36 0 62 -26t26 -62v-198q0 -36 -26 -61.5t-62 -25.5h-217q-36 0 -62 25.5t-26 61.5v286z" />
    <glyph glyph-name="zhidingshoupaiyuanxiadan" unicode="&#xe6b1;" 
d="M882 115l-98 -98l-117 117l-128 -128l31 -31l97 97l117 -117l129 129zM758 214l38 35q-59 42 -130 51q60 38 95 100.5t35 135.5q0 116 -82.5 198.5t-198.5 82.5t-198.5 -82.5t-82.5 -198.5q0 -73 35 -135.5t95 -100.5q-105 -13 -176 -92.5t-71 -186.5v-23q0 -22 4 -47h48
q-5 24 -5 49v19q0 98 72.5 167t175.5 69h206q77 0 140 -41zM281 536q0 97 68.5 165.5t165.5 68.5t165.5 -68.5t68.5 -165.5t-68.5 -165.5t-165.5 -68.5t-165.5 68.5t-68.5 165.5z" />
    <glyph glyph-name="ren" unicode="&#xe67f;" 
d="M511 765q-92 0 -156.5 -64.5t-64.5 -156.5q0 -65 35 -118.5t92 -80.5q-105 -31 -172.5 -119.5t-67.5 -200.5q0 -7 5 -12.5t12.5 -5.5t12.5 5.5t5 12.5q0 123 87.5 211t211.5 88q91 0 155.5 64.5t64.5 156t-64.5 156t-155.5 64.5v0zM511 359q-77 0 -131.5 54t-54.5 131
t54.5 131.5t131 54.5t131 -54.5t54.5 -131.5t-54.5 -131t-130.5 -54v0zM511 359zM713 290q-6 5 -13 4t-11.5 -7t-3.5 -13t7 -12q56 -42 86.5 -104.5t30.5 -132.5q0 -7 5.5 -12.5t12.5 -5.5t12 5.5t5 12.5q0 79 -34 148t-97 117v0zM713 290z" />
    <glyph glyph-name="xuanzhong" unicode="&#xe65a;" 
d="M512 855q94 1 181 -36t151 -99.5t102 -149.5t39 -182q1 -97 -35.5 -184t-99.5 -150.5t-150.5 -101.5t-184.5 -39q-96 -1 -184 35t-152 98t-102 148.5t-38 181.5q-1 98 36 186.5t100 152.5t150.5 102t186.5 38zM513 814q-116 0 -215.5 -57.5t-158.5 -156t-60 -213.5
q-1 -87 33.5 -167.5t92.5 -139t138 -93.5t168 -35q87 0 167 34t138.5 91.5t93 136.5t34.5 165q0 118 -57.5 218t-157 158.5t-216.5 58.5zM792 529q-24 -31 -25 -31l-126.5 -126.5t-159.5 -161.5q-21 -21 -38 -21t-37 22q-30 33 -89.5 92t-67.5 67l-4 4t-5 5.5t-4.5 5t-3.5 6
t-1 5.5t0.5 6t4.5 6q4 5 8.5 6.5t7.5 1.5t7.5 -3t6.5 -4.5t6.5 -6.5t5.5 -6q102 -100 129 -129q22 -22 38 -21t37 22q59 61 262 264q2 1 5.5 5t5 5.5t5.5 5t6.5 3.5t7 1.5t8.5 -0.5q13 -4 10 -23z" />
    <glyph glyph-name="no-check" unicode="&#xe674;" 
d="M49 847v-926h926v926h-926zM859 37h-694v694h694v-694z" />
    <glyph glyph-name="checkbox" unicode="&#xe66d;" 
d="M18 878v-988h988v988h-988zM425 133l-226 225l87 88l139 -139l313 313l87 -87z" />
    <glyph glyph-name="jiankongbaobiao" unicode="&#xe6d5;" horiz-adv-x="1025" 
d="M993 0h-897q-13 0 -22.5 9.5t-9.5 22.5v768q0 13 -9.5 22.5t-22.5 9.5t-22.5 -9.5t-9.5 -22.5v-800q0 -26 19 -45t45 -19h929q13 0 22.5 9.5t9.5 22.5t-9.5 22.5t-22.5 9.5zM160 256h64q18 -1 28 15l68 109l97 -218q6 -14 21 -18q13 -4 24.5 2.5t15.5 18.5l131 430
l96 -313q2 -11 10.5 -18.5t20.5 -7.5h160q4 0 8 1q18 -33 56 -33q27 0 45.5 18.5t18.5 45.5t-18.5 45.5t-45.5 18.5q-38 0 -56 -33q-4 1 -8 1h-136l-120 393q-4 13 -16 19.5t-24 2.5q-9 -3 -15 -10q-5 -5 -7 -12l-137 -448l-86 195q-3 6 -7 10l-0.5 0.5l-0.5 0.5
q-16 15 -35 6q-11 -4 -16 -14l-89 -143h-47q-13 0 -22.5 -9.5t-9.5 -22.5t9.5 -22.5t22.5 -9.5z" />
    </font>
</defs>
</svg>
